<svg width="24" height="24" viewBox="0 0 24 24" fill="none" xmlns="http://www.w3.org/2000/svg">
<path d="M5.88867 6.05554H18.1109V17.9445H5.88867V6.05554Z" fill="url(#paint0_radial_306_5234)"/>
<path d="M5.88856 6.05555H18.1108V17.9444H5.88856V6.05555ZM5.33301 18.5H18.6663V5.5H5.33301V18.5ZM14.7663 11.7667C15.0496 11.7667 15.1497 11.7667 15.1774 11.7556C15.1774 11.7167 15.1885 11.6889 15.1885 11.6611C15.1885 11.3611 15.0441 10.8056 14.4663 10.8056C13.933 10.8056 13.7052 11.2722 13.6497 11.7667H14.7663V11.7667ZM13.6386 12.5278C13.6497 13.2778 14.0052 13.7833 14.8497 13.7833C15.1775 13.7833 15.4608 13.7389 15.7552 13.6111C15.7941 13.5945 15.8219 13.6 15.8219 13.65V14.3445C15.8219 14.4 15.8053 14.4278 15.7664 14.4556C15.4719 14.6 15.1052 14.6667 14.6497 14.6667C13.183 14.6667 12.633 13.5834 12.633 12.3778C12.633 11.0667 13.3108 9.99449 14.5053 9.99449C15.7164 9.99449 16.1386 11.0111 16.1386 11.8389C16.1386 12.1056 16.1219 12.3223 16.0942 12.4278C16.0831 12.4723 16.0664 12.489 16.0219 12.5001C15.9108 12.5167 15.583 12.5389 15.0942 12.5389H13.6386V12.5278ZM10.6608 11.9611C10.5053 11.3444 10.1275 10 9.98856 9.34999H9.97745C9.8608 10 9.55522 11.1 9.32745 11.9611H10.6608V11.9611ZM9.09966 12.8611L8.66079 14.5222C8.64968 14.5666 8.63301 14.5833 8.57744 14.5833H7.76077C7.70522 14.5833 7.69409 14.5667 7.70522 14.5L9.28299 8.98333C9.31077 8.88335 9.32743 8.80556 9.33854 8.52779C9.33854 8.48891 9.3552 8.47225 9.38298 8.47225H10.5496C10.5885 8.47225 10.6052 8.48336 10.6163 8.52779L12.383 14.5111C12.3941 14.5555 12.383 14.5833 12.3385 14.5833H11.4219C11.3774 14.5833 11.3496 14.5667 11.3385 14.5278L10.883 12.8611H9.09966V12.8611Z" fill="#D8A1FF"/>
<defs>
<radialGradient id="paint0_radial_306_5234" cx="0" cy="0" r="1" gradientUnits="userSpaceOnUse" gradientTransform="translate(9.91408 8.71986) scale(9.28888 8.99334)">
<stop stop-color="#442F55" stop-opacity="0.98"/>
<stop offset="1" stop-color="#12002C"/>
</radialGradient>
</defs>
</svg>
