<svg width="24" height="24" viewBox="0 0 24 24" fill="none" xmlns="http://www.w3.org/2000/svg">
<g clip-path="url(#clip0_306_5288)">
<mask id="mask0_306_5288" style="mask-type:luminance" maskUnits="userSpaceOnUse" x="5" y="5" width="14" height="14">
<path d="M5.16895 5.14282H18.8832V18.8571H5.16895V5.14282Z" fill="white"/>
</mask>
<g mask="url(#mask0_306_5288)">
<path fill-rule="evenodd" clip-rule="evenodd" d="M10.8383 7.54054H8.78514C8.37529 7.54055 7.98223 7.70332 7.69237 7.99307C7.40251 8.28282 7.2396 8.67583 7.23944 9.08567V15.5782C7.23944 15.9882 7.40229 16.3813 7.69216 16.6712C7.98204 16.9611 8.37519 17.124 8.78514 17.124H15.2783C15.6882 17.124 16.0814 16.9611 16.3713 16.6712C16.6612 16.3813 16.824 15.9882 16.824 15.5782V12.8605L17.7514 12.2245V15.5788C17.7513 16.2347 17.4907 16.8637 17.0269 17.3274C16.5631 17.7912 15.9342 18.0518 15.2783 18.052H8.78514C8.12926 18.0518 7.50029 17.7912 7.03652 17.3274C6.57275 16.8637 6.31215 16.2347 6.31201 15.5788V9.08624C6.31194 8.76141 6.37586 8.43976 6.50011 8.13964C6.62436 7.83952 6.80651 7.56682 7.03616 7.3371C7.26582 7.10739 7.53849 6.92517 7.83858 6.80085C8.13867 6.67653 8.46031 6.61255 8.78514 6.61255H11.3823L10.8383 7.54054Z" fill="black"/>
<path fill-rule="evenodd" clip-rule="evenodd" d="M15.3521 5.14282C15.435 5.14282 15.5052 5.20226 15.523 5.28339C15.6852 6.03785 16.0623 6.72926 16.6087 7.27424C17.1538 7.82093 17.8454 8.1982 18.6001 8.36054C18.6813 8.37824 18.7407 8.44853 18.7407 8.53197C18.7402 8.57212 18.726 8.6109 18.7004 8.64187C18.6748 8.67284 18.6395 8.69414 18.6001 8.70224C17.8456 8.86469 17.1542 9.24195 16.6092 9.78854C16.0554 10.3406 15.6756 11.0429 15.5167 11.8085C15.509 11.8466 15.4884 11.8809 15.4585 11.9057C15.4285 11.9304 15.391 11.9442 15.3521 11.9445C15.3132 11.9442 15.2757 11.9304 15.2457 11.9057C15.2158 11.8809 15.1952 11.8466 15.1875 11.8085C15.0286 11.0429 14.6488 10.3406 14.095 9.78854C13.5429 9.23472 12.8406 8.85487 12.075 8.69597C12.0369 8.68825 12.0026 8.66769 11.9779 8.63774C11.9531 8.60779 11.9394 8.57025 11.939 8.5314C11.939 8.45139 11.9961 8.38282 12.075 8.36683C12.8406 8.20791 13.5429 7.82806 14.095 7.27424C14.6415 6.7293 15.0188 6.0379 15.1812 5.28339C15.1894 5.24396 15.2107 5.20849 15.2418 5.18291C15.2729 5.15733 15.3118 5.14318 15.3521 5.14282Z" fill="black"/>
</g>
</g>
<defs>
<clipPath id="clip0_306_5288">
<rect width="13.7143" height="13.7143" fill="white" transform="translate(5.16895 5.14282)"/>
</clipPath>
</defs>
</svg>
