<svg width="24" height="24" viewBox="0 0 24 24" fill="none" xmlns="http://www.w3.org/2000/svg">
<mask id="mask0_306_5273" style="mask-type:alpha" maskUnits="userSpaceOnUse" x="6" y="6" width="12" height="12">
<path d="M16.5114 16.9092C17.1313 17.3767 18.0612 17.065 17.2088 16.2079C14.6516 13.7144 15.194 6.85718 12.017 6.85718C8.8399 6.85718 9.38232 13.7144 6.82517 16.2079C5.89529 17.1429 6.90265 17.3767 7.52257 16.9092C9.92476 15.2728 9.76977 12.3897 12.017 12.3897C14.2642 12.3897 14.1092 15.2728 16.5114 16.9092Z" fill="black"/>
</mask>
<g mask="url(#mask0_306_5273)">
<g filter="url(#filter0_f_306_5273)">
<path d="M5.97725 4.53497C5.7887 6.20538 7.22016 7.74034 9.17452 7.96341C11.1289 8.18648 12.866 7.01318 13.0546 5.34278C13.2431 3.67237 11.8117 2.1374 9.85732 1.91434C7.90297 1.69127 6.1658 2.86457 5.97725 4.53497Z" fill="#FFE432"/>
</g>
<g filter="url(#filter1_f_306_5273)">
<path d="M13.512 9.99619C14.0017 12.1162 16.1452 13.4268 18.2998 12.9236C20.4543 12.4204 21.804 10.2939 21.3143 8.1739C20.8247 6.05391 18.6811 4.74326 16.5266 5.24647C14.372 5.74968 13.0224 7.8762 13.512 9.99619Z" fill="#FC413D"/>
</g>
<g filter="url(#filter2_f_306_5273)">
<path d="M0.691643 11.4183C1.31036 13.6062 4.09684 14.7264 6.91541 13.9204C9.73399 13.1144 11.5173 10.6874 10.8986 8.49948C10.2799 6.31159 7.49341 5.19136 4.67484 5.99736C1.85626 6.80337 0.0729247 9.23039 0.691643 11.4183Z" fill="#00B95C"/>
</g>
<g filter="url(#filter3_f_306_5273)">
<path d="M0.691643 11.4183C1.31036 13.6062 4.09684 14.7264 6.91541 13.9204C9.73399 13.1144 11.5173 10.6874 10.8986 8.49948C10.2799 6.31159 7.49341 5.19136 4.67484 5.99736C1.85626 6.80337 0.0729247 9.23039 0.691643 11.4183Z" fill="#00B95C"/>
</g>
<g filter="url(#filter4_f_306_5273)">
<path d="M2.92803 13.2319C4.47907 14.825 7.1503 14.7245 8.8944 13.0074C10.6385 11.2903 10.795 8.60688 9.24395 7.0138C7.69291 5.42072 5.02168 5.52125 3.27759 7.23835C1.53349 8.95544 1.37699 11.6389 2.92803 13.2319Z" fill="#00B95C"/>
</g>
<g filter="url(#filter5_f_306_5273)">
<path d="M11.0431 19.2401C11.5247 21.3253 13.5339 22.6377 15.5308 22.1713C17.5277 21.7049 18.7561 19.6364 18.2744 17.5511C17.7928 15.4658 15.7835 14.1535 13.7867 14.6199C11.7898 15.0863 10.5614 17.1548 11.0431 19.2401Z" fill="#3186FF"/>
</g>
<g filter="url(#filter6_f_306_5273)">
<path d="M7.63813 2.58404C6.62961 4.84319 7.73301 7.54174 10.1026 8.61143C12.4723 9.68112 15.2108 8.71688 16.2193 6.45773C17.2278 4.19859 16.1244 1.50003 13.7548 0.430341C11.3852 -0.639349 8.64666 0.324895 7.63813 2.58404Z" fill="#FBBC04"/>
</g>
<g filter="url(#filter7_f_306_5273)">
<path d="M4.9365 24.3898C2.49497 23.426 6.66749 15.4961 7.70504 12.8384C8.74261 10.1807 11.563 8.80749 14.0045 9.77132C16.4461 10.7352 19.34 16.0438 18.3024 18.7015C17.2648 21.3592 7.37805 25.3536 4.9365 24.3898Z" fill="#3186FF"/>
</g>
<g filter="url(#filter8_f_306_5273)">
<path d="M19.7306 14.5199C19.0769 15.287 17.3711 14.8958 15.9206 13.6461C14.4701 12.3963 13.8241 10.7613 14.4777 9.99415C15.1314 9.22699 16.8371 9.6182 18.2877 10.8679C19.7382 12.1177 20.3843 13.7527 19.7306 14.5199Z" fill="#749BFF"/>
</g>
<g filter="url(#filter9_f_306_5273)">
<path d="M14.8511 10.6149C17.5396 12.4437 20.6354 12.5638 21.7659 10.8833C22.8964 9.20271 21.6334 6.35787 18.945 4.52913C16.2566 2.70038 13.1607 2.58025 12.0302 4.26079C10.8997 5.94134 12.1627 8.78618 14.8511 10.6149Z" fill="#FC413D"/>
</g>
<g filter="url(#filter10_f_306_5273)">
<path d="M6.02461 7.64066C5.35857 9.25632 5.5761 10.8818 6.51048 11.2713C7.44485 11.6608 8.74225 10.6668 9.40829 9.05116C10.0743 7.43549 9.8568 5.80998 8.92242 5.42048C7.98805 5.03098 6.69065 6.02499 6.02461 7.64066Z" fill="#FFEE48"/>
</g>
</g>
<defs>
<filter id="filter0_f_306_5273" x="3.89485" y="-0.178511" width="11.242" height="10.2347" filterUnits="userSpaceOnUse" color-interpolation-filters="sRGB">
<feFlood flood-opacity="0" result="BackgroundImageFix"/>
<feBlend mode="normal" in="SourceGraphic" in2="BackgroundImageFix" result="shape"/>
<feGaussianBlur stdDeviation="1.0328" result="effect1_foregroundBlur_306_5273"/>
</filter>
<filter id="filter1_f_306_5273" x="3.42552" y="-4.84718" width="27.9751" height="27.8644" filterUnits="userSpaceOnUse" color-interpolation-filters="sRGB">
<feFlood flood-opacity="0" result="BackgroundImageFix"/>
<feBlend mode="normal" in="SourceGraphic" in2="BackgroundImageFix" result="shape"/>
<feGaussianBlur stdDeviation="4.99305" result="effect1_foregroundBlur_306_5273"/>
</filter>
<filter id="filter2_f_306_5273" x="-7.92028" y="-2.75316" width="27.4304" height="25.424" filterUnits="userSpaceOnUse" color-interpolation-filters="sRGB">
<feFlood flood-opacity="0" result="BackgroundImageFix"/>
<feBlend mode="normal" in="SourceGraphic" in2="BackgroundImageFix" result="shape"/>
<feGaussianBlur stdDeviation="4.24456" result="effect1_foregroundBlur_306_5273"/>
</filter>
<filter id="filter3_f_306_5273" x="-7.92028" y="-2.75316" width="27.4304" height="25.424" filterUnits="userSpaceOnUse" color-interpolation-filters="sRGB">
<feFlood flood-opacity="0" result="BackgroundImageFix"/>
<feBlend mode="normal" in="SourceGraphic" in2="BackgroundImageFix" result="shape"/>
<feGaussianBlur stdDeviation="4.24456" result="effect1_foregroundBlur_306_5273"/>
</filter>
<filter id="filter4_f_306_5273" x="-6.62926" y="-2.60741" width="25.4304" height="25.4605" filterUnits="userSpaceOnUse" color-interpolation-filters="sRGB">
<feFlood flood-opacity="0" result="BackgroundImageFix"/>
<feBlend mode="normal" in="SourceGraphic" in2="BackgroundImageFix" result="shape"/>
<feGaussianBlur stdDeviation="4.24456" result="effect1_foregroundBlur_306_5273"/>
</filter>
<filter id="filter5_f_306_5273" x="2.8713" y="6.45858" width="23.5748" height="23.874" filterUnits="userSpaceOnUse" color-interpolation-filters="sRGB">
<feFlood flood-opacity="0" result="BackgroundImageFix"/>
<feBlend mode="normal" in="SourceGraphic" in2="BackgroundImageFix" result="shape"/>
<feGaussianBlur stdDeviation="4.03359" result="effect1_foregroundBlur_306_5273"/>
</filter>
<filter id="filter6_f_306_5273" x="-0.0464978" y="-7.31725" width="23.9504" height="23.6762" filterUnits="userSpaceOnUse" color-interpolation-filters="sRGB">
<feFlood flood-opacity="0" result="BackgroundImageFix"/>
<feBlend mode="normal" in="SourceGraphic" in2="BackgroundImageFix" result="shape"/>
<feGaussianBlur stdDeviation="3.65557" result="effect1_foregroundBlur_306_5273"/>
</filter>
<filter id="filter7_f_306_5273" x="-2.34751" y="2.9341" width="27.3957" height="28.1318" filterUnits="userSpaceOnUse" color-interpolation-filters="sRGB">
<feFlood flood-opacity="0" result="BackgroundImageFix"/>
<feBlend mode="normal" in="SourceGraphic" in2="BackgroundImageFix" result="shape"/>
<feGaussianBlur stdDeviation="3.26458" result="effect1_foregroundBlur_306_5273"/>
</filter>
<filter id="filter8_f_306_5273" x="8.38024" y="3.75902" width="17.448" height="16.996" filterUnits="userSpaceOnUse" color-interpolation-filters="sRGB">
<feFlood flood-opacity="0" result="BackgroundImageFix"/>
<feBlend mode="normal" in="SourceGraphic" in2="BackgroundImageFix" result="shape"/>
<feGaussianBlur stdDeviation="2.92121" result="effect1_foregroundBlur_306_5273"/>
</filter>
<filter id="filter9_f_306_5273" x="6.68159" y="-1.85967" width="20.4332" height="18.8634" filterUnits="userSpaceOnUse" color-interpolation-filters="sRGB">
<feFlood flood-opacity="0" result="BackgroundImageFix"/>
<feBlend mode="normal" in="SourceGraphic" in2="BackgroundImageFix" result="shape"/>
<feGaussianBlur stdDeviation="2.46731" result="effect1_foregroundBlur_306_5273"/>
</filter>
<filter id="filter10_f_306_5273" x="-0.468746" y="-0.77148" width="16.3706" height="18.2347" filterUnits="userSpaceOnUse" color-interpolation-filters="sRGB">
<feFlood flood-opacity="0" result="BackgroundImageFix"/>
<feBlend mode="normal" in="SourceGraphic" in2="BackgroundImageFix" result="shape"/>
<feGaussianBlur stdDeviation="3.05371" result="effect1_foregroundBlur_306_5273"/>
</filter>
</defs>
</svg>
