<svg width="24" height="24" viewBox="0 0 24 24" fill="none" xmlns="http://www.w3.org/2000/svg">
<rect width="24" height="24" rx="2" fill="white"/>
<path d="M13.7708 13.6867L17.1099 11.5301C18.0479 10.8624 18.7204 10.307 18.3016 9.57433C17.9417 8.95393 17.1748 9.08392 15.871 9.49752C14.6675 9.88157 13.0747 10.4429 12.0954 10.8033C11.9774 10.8447 11.8948 10.6851 12.001 10.6142C13.1809 9.81658 14.5318 8.84758 15.2339 8.22127C15.6881 7.81949 15.7471 7.32908 15.5052 7.03366C15.2988 6.77959 15.0274 6.51961 13.7413 6.93912C12.8151 7.24636 11.6352 7.74268 10.5733 8.174C10.4613 8.22127 10.3728 8.07356 10.4672 7.99675C10.7208 7.78404 11.2164 7.40589 11.4878 7.11638C11.9184 6.66142 11.9243 6.21828 11.706 5.92876C11.5939 5.77514 11.3403 5.52107 10.6264 5.58016C10.0365 5.62743 9.35217 5.7515 8.43187 6.00557C7.75933 6.19464 7.85373 7.24045 8.80943 7.06911C9.0513 7.02775 9.39937 6.95685 9.65304 6.90367C9.75923 6.88003 9.83002 7.02184 9.74153 7.08683C9.1044 7.58315 8.34927 8.19173 8.00121 8.50488C7.55286 8.90666 7.36407 9.33799 7.66494 9.73977C7.97761 10.1475 8.59115 10.0234 9.32858 9.81067C9.78283 9.68068 10.4908 9.43843 10.9981 9.26708C11.1161 9.22572 11.1928 9.39116 11.0866 9.45616C10.1545 10.047 8.56165 11.0337 7.74754 11.6128C6.80953 12.2804 6.137 12.8358 6.55586 13.5685C6.91572 14.1889 7.68264 14.0589 8.98641 13.6453C10.1899 13.2613 11.7827 12.6999 12.762 12.3395C12.88 12.2982 12.9626 12.4577 12.8564 12.5286C11.6765 13.3262 10.3256 14.2952 9.62355 14.9216C9.16929 15.3233 9.1103 15.8137 9.35217 16.1092C9.55865 16.3632 9.83002 16.6232 11.1161 16.2037C12.0423 15.8965 13.2222 15.4001 14.2841 14.9688C14.3962 14.9216 14.4847 15.0693 14.3903 15.1461C14.1366 15.3588 13.641 15.7369 13.3697 16.0264C12.939 16.4814 12.9331 16.9245 13.1514 17.2141C13.2635 17.3677 13.5172 17.6218 14.231 17.5627C14.8209 17.5154 15.5052 17.3913 16.4256 17.1373C17.0981 16.9482 17.0037 15.9024 16.048 16.0737C15.8061 16.1151 15.4581 16.186 15.2044 16.2392C15.0982 16.2628 15.0274 16.121 15.1159 16.056C15.753 15.5538 16.5022 14.9452 16.8503 14.632C17.2987 14.2303 17.4874 13.7989 17.1866 13.3971C16.8739 12.9895 16.2604 13.1135 15.5229 13.3262C15.0687 13.4562 14.3608 13.6985 13.8534 13.8698C13.7472 13.9171 13.6646 13.7517 13.7708 13.6867Z" fill="#AE1C59"/>
</svg>
