<svg width="24" height="24" viewBox="0 0 24 24" fill="none" xmlns="http://www.w3.org/2000/svg">
<path d="M9.77789 18.6667C11.0046 18.6667 12.0001 17.6712 12.0001 16.4445V14.2223H9.77789C8.55122 14.2223 7.55566 15.2178 7.55566 16.4445C7.55566 17.6712 8.55122 18.6667 9.77789 18.6667Z" fill="#0ACF83"/>
<path d="M7.55566 12.0001C7.55566 10.7734 8.55122 9.77783 9.77789 9.77783H12.0001V14.2223H9.77789C8.55122 14.2223 7.55566 13.2267 7.55566 12.0001Z" fill="#A259FF"/>
<path d="M7.55566 7.5556C7.55566 6.32893 8.55122 5.33337 9.77789 5.33337H12.0001V9.77782H9.77789C8.55122 9.77782 7.55566 8.78226 7.55566 7.5556Z" fill="#F24E1E"/>
<path d="M12 5.33337H14.2222C15.4489 5.33337 16.4445 6.32893 16.4445 7.5556C16.4445 8.78226 15.4489 9.77782 14.2222 9.77782H12V5.33337Z" fill="#FF7262"/>
<path d="M16.4445 12.0001C16.4445 13.2267 15.4489 14.2223 14.2222 14.2223C12.9956 14.2223 12 13.2267 12 12.0001C12 10.7734 12.9956 9.77783 14.2222 9.77783C15.4489 9.77783 16.4445 10.7734 16.4445 12.0001Z" fill="#1ABCFE"/>
</svg>
