<svg width="24" height="24" viewBox="0 0 24 24" fill="none" xmlns="http://www.w3.org/2000/svg">
<g opacity="0.61">
<path d="M10.9438 18.1541L10.7817 18.5284H10.6962L10.5347 18.1541H10.6283L10.7422 18.4214L10.8577 18.1541H10.9438Z" fill="white"/>
<path d="M11.2279 18.4038H11.0103C11.0183 18.4397 11.0488 18.4616 11.0926 18.4616C11.1231 18.4616 11.145 18.4525 11.1648 18.4338L11.2092 18.4819C11.1825 18.5124 11.1423 18.5284 11.0905 18.5284C10.991 18.5284 10.9263 18.4659 10.9263 18.3803C10.9263 18.2942 10.992 18.2322 11.0798 18.2322C11.1643 18.2322 11.2295 18.2889 11.2295 18.3814C11.2295 18.3878 11.2285 18.3969 11.2279 18.4038ZM11.0092 18.3552H11.1509C11.145 18.3188 11.1178 18.2953 11.0803 18.2953C11.0423 18.2953 11.0151 18.3183 11.0092 18.3552Z" fill="white"/>
<path d="M11.2637 18.3803C11.2637 18.2937 11.3305 18.2322 11.4241 18.2322C11.4845 18.2322 11.5321 18.2584 11.553 18.3054L11.4883 18.3402C11.4728 18.3129 11.4498 18.3006 11.4236 18.3006C11.3813 18.3006 11.3482 18.33 11.3482 18.3803C11.3482 18.4306 11.3814 18.46 11.4236 18.46C11.4498 18.46 11.4728 18.4482 11.4883 18.4204L11.553 18.4557C11.5321 18.5017 11.4845 18.5284 11.4241 18.5284C11.3305 18.5284 11.2637 18.467 11.2637 18.3803Z" fill="white"/>
<path d="M11.7906 18.5102C11.7735 18.5225 11.7483 18.5284 11.7227 18.5284C11.6548 18.5284 11.6152 18.4936 11.6152 18.4251V18.307H11.5708V18.2428H11.6152V18.1727H11.6986V18.2428H11.7703V18.307H11.6986V18.4241C11.6986 18.4487 11.712 18.4621 11.7344 18.4621C11.7467 18.4621 11.759 18.4583 11.7681 18.4514L11.7906 18.5102Z" fill="white"/>
<path d="M12.3632 18.2365V18.3135C12.3563 18.313 12.3509 18.3124 12.3445 18.3124C12.2985 18.3124 12.268 18.3375 12.268 18.3926V18.5285H12.1846V18.2407H12.2642V18.2787C12.2846 18.2509 12.3188 18.2365 12.3632 18.2365Z" fill="white"/>
<path d="M12.3872 18.4851L12.4166 18.4199C12.4482 18.4429 12.4952 18.4589 12.5401 18.4589C12.5915 18.4589 12.6123 18.4418 12.6123 18.4188C12.6123 18.3487 12.3947 18.3969 12.3947 18.2578C12.3947 18.1942 12.446 18.1412 12.5524 18.1412C12.5995 18.1412 12.6476 18.1525 12.6824 18.1744L12.6556 18.2402C12.6208 18.2204 12.585 18.2108 12.5519 18.2108C12.5005 18.2108 12.4808 18.23 12.4808 18.2536C12.4808 18.3225 12.6984 18.2749 12.6984 18.4124C12.6984 18.4749 12.6465 18.5284 12.5396 18.5284C12.4803 18.5285 12.4204 18.5108 12.3872 18.4851Z" fill="white"/>
<path d="M13.0321 18.4038H12.8145C12.8225 18.4397 12.853 18.4616 12.8968 18.4616C12.9273 18.4616 12.9492 18.4525 12.969 18.4338L13.0134 18.4819C12.9866 18.5124 12.9465 18.5284 12.8947 18.5284C12.7952 18.5284 12.7305 18.4659 12.7305 18.3803C12.7305 18.2942 12.7962 18.2322 12.884 18.2322C12.9685 18.2322 13.0337 18.2889 13.0337 18.3814C13.0338 18.3878 13.0327 18.3969 13.0321 18.4038ZM12.8134 18.3552H12.9551C12.9492 18.3188 12.922 18.2953 12.8845 18.2953C12.8466 18.2953 12.8193 18.3183 12.8134 18.3552Z" fill="white"/>
<path d="M13.3695 18.4038H13.1519C13.1599 18.4397 13.1904 18.4616 13.2342 18.4616C13.2647 18.4616 13.2866 18.4525 13.3064 18.4338L13.3508 18.4819C13.324 18.5124 13.2839 18.5284 13.2321 18.5284C13.1326 18.5284 13.0679 18.4659 13.0679 18.3803C13.0679 18.2942 13.1336 18.2322 13.2214 18.2322C13.3059 18.2322 13.3711 18.2889 13.3711 18.3814C13.3711 18.3878 13.3701 18.3969 13.3695 18.4038ZM13.1508 18.3552H13.2925C13.2866 18.3188 13.2593 18.2953 13.2219 18.2953C13.1839 18.2953 13.1567 18.3183 13.1508 18.3552Z" fill="white"/>
<path d="M13.5503 18.4156L13.5102 18.4551V18.5284H13.4268V18.1316H13.5102V18.3562L13.6321 18.2407H13.7316L13.6118 18.3626L13.7423 18.5284H13.6412L13.5503 18.4156Z" fill="white"/>
<path d="M12.192 18.5675L12.1086 18.4841C12.0959 18.4989 12.0808 18.5116 12.0639 18.5216C12.0612 18.5236 12.0585 18.5255 12.0557 18.5273L12.1439 18.6156C12.1572 18.6289 12.1787 18.6289 12.192 18.6156C12.2053 18.6023 12.2053 18.5808 12.192 18.5675Z" fill="white"/>
<path d="M11.9994 18.2144C12.0059 18.2094 12.0139 18.2062 12.0227 18.2062C12.0239 18.2062 12.0251 18.2063 12.0263 18.2064C12.02 18.2019 12.0123 18.1992 12.004 18.1992C11.9925 18.1992 11.9823 18.2044 11.9754 18.2125C11.9739 18.2125 11.9725 18.2127 11.971 18.2127C11.9722 18.2105 11.9729 18.208 11.9729 18.2053C11.9729 18.1985 11.9687 18.1927 11.9628 18.1902C11.9653 18.1939 11.9668 18.1983 11.9668 18.2032C11.9668 18.2067 11.9659 18.2101 11.9645 18.2131C11.8825 18.2189 11.8179 18.2871 11.8179 18.3705C11.8179 18.4577 11.8886 18.5284 11.9758 18.5284C12.063 18.5284 12.1338 18.4577 12.1338 18.3705C12.1338 18.2912 12.0755 18.2258 11.9994 18.2144ZM11.9411 18.2556C11.9538 18.2556 11.9657 18.2588 11.9761 18.2646C11.987 18.2574 12 18.2533 12.0139 18.2533C12.0346 18.2533 12.0532 18.2624 12.0659 18.2768C12.0532 18.2658 12.0366 18.259 12.0185 18.259C12.0054 18.259 11.9931 18.2625 11.9825 18.2686C11.9802 18.2699 11.978 18.2714 11.9759 18.273C11.974 18.2716 11.972 18.2703 11.9699 18.2691C11.9592 18.2627 11.9466 18.2591 11.9332 18.2591C11.9244 18.2591 11.9161 18.2606 11.9083 18.2635C11.9182 18.2584 11.9293 18.2556 11.9411 18.2556ZM12.0515 18.385C12.0549 18.3939 12.0568 18.4035 12.0568 18.4136C12.0568 18.4583 12.0206 18.4945 11.9759 18.4945C11.9311 18.4945 11.8949 18.4583 11.8949 18.4136C11.8949 18.4035 11.8968 18.3939 11.9002 18.385C11.8821 18.3739 11.87 18.354 11.87 18.3312C11.87 18.2964 11.8983 18.2681 11.9332 18.2681C11.9497 18.2681 11.9646 18.2744 11.9759 18.2847C11.9871 18.2744 12.0021 18.2681 12.0185 18.2681C12.0534 18.2681 12.0817 18.2964 12.0817 18.3312C12.0817 18.354 12.0696 18.3739 12.0515 18.385Z" fill="white"/>
<path d="M12.0481 18.3257C12.0481 18.3402 12.0363 18.352 12.0219 18.352C12.0074 18.352 11.9956 18.3402 11.9956 18.3257C11.9956 18.3112 12.0074 18.2994 12.0219 18.2994C12.0248 18.2994 12.0276 18.2999 12.0302 18.3008C12.0294 18.3026 12.0289 18.3047 12.0289 18.3068C12.0289 18.3147 12.0354 18.3211 12.0433 18.3211C12.0448 18.3211 12.0462 18.3209 12.0476 18.3205C12.0479 18.3222 12.0481 18.3239 12.0481 18.3257Z" fill="white"/>
<path d="M11.9489 18.3256C11.9489 18.3366 11.94 18.3455 11.929 18.3455C11.9181 18.3455 11.9092 18.3366 11.9092 18.3256C11.9092 18.3147 11.9181 18.3058 11.929 18.3058C11.9312 18.3058 11.9334 18.3062 11.9353 18.3068C11.9347 18.3082 11.9344 18.3097 11.9344 18.3113C11.9344 18.3173 11.9392 18.3222 11.9453 18.3222C11.9464 18.3222 11.9474 18.322 11.9485 18.3217C11.9487 18.323 11.9489 18.3243 11.9489 18.3256Z" fill="white"/>
<path d="M11.8109 18.348H11.793V18.366H11.8109V18.348Z" fill="white"/>
<path d="M12.1581 18.348H12.1401V18.366H12.1581V18.348Z" fill="white"/>
<path d="M12.1513 18.3554H12.1472C12.1472 18.2608 12.0702 18.1838 11.9755 18.1838C11.8809 18.1838 11.8039 18.2608 11.8039 18.3554H11.7998C11.7998 18.3085 11.8181 18.2643 11.8513 18.2312C11.8845 18.198 11.9286 18.1797 11.9755 18.1797C12.0225 18.1797 12.0666 18.198 12.0998 18.2312C12.133 18.2643 12.1513 18.3085 12.1513 18.3554Z" fill="white"/>
<path d="M11.9847 18.1727H11.9668V18.1907H11.9847V18.1727Z" fill="white"/>
<path d="M12.0988 18.1797H11.8525V18.1838H12.0988V18.1797Z" fill="white"/>
<path d="M11.8591 18.1825C11.8591 18.1856 11.8565 18.1882 11.8534 18.1882C11.8502 18.1882 11.8477 18.1856 11.8477 18.1825C11.8477 18.1793 11.8502 18.1768 11.8534 18.1768C11.8565 18.1768 11.8591 18.1793 11.8591 18.1825Z" fill="white"/>
<path d="M12.1047 18.1825C12.1047 18.1856 12.1021 18.1882 12.099 18.1882C12.0958 18.1882 12.0933 18.1856 12.0933 18.1825C12.0933 18.1793 12.0958 18.1768 12.099 18.1768C12.1022 18.1768 12.1047 18.1793 12.1047 18.1825Z" fill="white"/>
<path d="M13.875 18.5107C13.875 18.5562 13.8062 18.5562 13.8062 18.5107C13.8062 18.4653 13.875 18.4653 13.875 18.5107Z" fill="white"/>
<path d="M9.42748 18.3108L9.47912 18.4882L9.53318 18.3108H9.59773L9.51546 18.548H9.44756L9.42317 18.4782L9.40213 18.3993L9.38109 18.4782L9.35669 18.548H9.28879L9.20605 18.3108H9.27107L9.32513 18.4882L9.37631 18.3108H9.42748Z" fill="white"/>
<path d="M9.86401 18.3108L9.91565 18.4882L9.96971 18.3108H10.0343L9.95199 18.548H9.88408L9.85969 18.4782L9.83865 18.3993L9.81761 18.4782L9.79322 18.548H9.72531L9.64258 18.3108H9.7076L9.76166 18.4882L9.81283 18.3108H9.86401Z" fill="white"/>
<path d="M10.3 18.3108L10.3517 18.4882L10.4057 18.3108H10.4703L10.388 18.548H10.3201L10.2957 18.4782L10.2747 18.3993L10.2536 18.4782L10.2293 18.548H10.1613L10.0786 18.3108H10.1436L10.1977 18.4882L10.2489 18.3108H10.3Z" fill="white"/>
<path d="M10.5689 18.5139C10.5689 18.5593 10.5 18.5593 10.5 18.5139C10.5 18.4685 10.5689 18.4685 10.5689 18.5139Z" fill="white"/>
<path d="M14.1185 18.5107C14.0912 18.5375 14.0626 18.548 14.0277 18.548C13.9593 18.548 13.9023 18.5069 13.9023 18.4232C13.9023 18.3395 13.9593 18.2983 14.0277 18.2983C14.0611 18.2983 14.087 18.3079 14.1128 18.3333L14.0759 18.372C14.0621 18.3595 14.0449 18.3534 14.0286 18.3534C13.9894 18.3534 13.9607 18.3821 13.9607 18.4232C13.9607 18.4681 13.9913 18.492 14.0277 18.492C14.0463 18.492 14.065 18.4868 14.0793 18.4724L14.1185 18.5107Z" fill="white"/>
<path d="M14.3835 18.4251C14.3835 18.493 14.3371 18.548 14.2606 18.548C14.1841 18.548 14.1382 18.493 14.1382 18.4251C14.1382 18.3577 14.1851 18.3022 14.2601 18.3022C14.3352 18.3022 14.3835 18.3577 14.3835 18.4251ZM14.1965 18.4251C14.1965 18.461 14.2181 18.4945 14.2606 18.4945C14.3032 18.4945 14.3247 18.461 14.3247 18.4251C14.3247 18.3897 14.2998 18.3553 14.2606 18.3553C14.2185 18.3553 14.1965 18.3898 14.1965 18.4251Z" fill="white"/>
<path d="M14.5807 18.5479V18.4217C14.5807 18.3906 14.5644 18.3624 14.5324 18.3624C14.5009 18.3624 14.4822 18.3906 14.4822 18.4217V18.5479H14.4238V18.3117H14.4779L14.4822 18.3404C14.4946 18.3165 14.5219 18.3079 14.5444 18.3079C14.5726 18.3079 14.6008 18.3193 14.6142 18.3519C14.6353 18.3184 14.6625 18.3088 14.6931 18.3088C14.76 18.3088 14.7931 18.3499 14.7931 18.4207V18.5479H14.7347V18.4207C14.7347 18.3896 14.7218 18.3633 14.6902 18.3633C14.6587 18.3633 14.639 18.3905 14.639 18.4217V18.5479H14.5807V18.5479Z" fill="white"/>
</g>
<g opacity="0.61">
<path d="M14.7972 17.2835C14.797 17.2479 14.7692 17.2217 14.7334 17.2212C14.7065 17.2208 14.7091 17.2247 14.7091 17.1959C14.709 17.1639 14.7089 17.132 14.7092 17.1C14.7093 17.0889 14.7059 17.0798 14.6986 17.0715C14.6304 16.9938 14.5623 16.9158 14.4941 16.8381C14.4906 16.8341 14.4861 16.8309 14.482 16.8274C14.3009 16.8274 14.1198 16.8274 13.9387 16.8274C13.9156 16.8359 13.9055 16.8527 13.9056 16.8772C13.9059 16.9864 13.9057 17.0957 13.9057 17.2049C13.9057 17.2211 13.9056 17.222 13.8897 17.2209C13.846 17.2179 13.8163 17.2496 13.8169 17.2935C13.8182 17.3948 13.8173 17.4962 13.8173 17.5975C13.8173 17.6435 13.8426 17.6687 13.8887 17.6688C13.9057 17.6689 13.9057 17.6689 13.9057 17.6863C13.9057 17.751 13.9056 17.8157 13.9057 17.8803C13.9057 17.9151 13.9226 17.9319 13.9572 17.9319C14.1907 17.932 14.4243 17.932 14.6578 17.9319C14.6919 17.9319 14.709 17.9149 14.709 17.8811C14.7091 17.8153 14.709 17.7496 14.7091 17.6838C14.7091 17.6689 14.7091 17.669 14.7242 17.6688C14.7321 17.6688 14.74 17.6691 14.7478 17.6671C14.7768 17.66 14.797 17.6367 14.7972 17.6068C14.7976 17.4991 14.7977 17.3913 14.7972 17.2835ZM13.968 16.8715C14.1236 16.8715 14.2791 16.8715 14.4346 16.8715C14.4506 16.8715 14.4508 16.8717 14.4508 16.8879C14.4508 16.9533 14.4507 17.0186 14.4508 17.084C14.4508 17.1077 14.458 17.1149 14.4817 17.1149C14.5373 17.1149 14.593 17.1149 14.6487 17.1149C14.662 17.1149 14.6627 17.1155 14.6627 17.129C14.6628 17.1548 14.6628 17.1807 14.6627 17.2066C14.6627 17.2205 14.662 17.2211 14.648 17.2211C14.5345 17.2211 14.421 17.2211 14.3075 17.2211C14.1944 17.2211 14.0812 17.2211 13.9681 17.2211C13.9521 17.2211 13.952 17.2211 13.952 17.2048C13.952 17.0991 13.952 16.9936 13.952 16.888C13.952 16.8717 13.9521 16.8715 13.968 16.8715ZM14.6466 17.8746C14.5335 17.8746 14.4203 17.8746 14.3071 17.8746C14.1943 17.8746 14.0815 17.8746 13.9687 17.8746C13.952 17.8746 13.9519 17.8745 13.9519 17.8577C13.9519 17.7995 13.9519 17.7413 13.952 17.6831C13.952 17.6696 13.9526 17.6689 13.9659 17.6689C14.1933 17.6689 14.4207 17.6689 14.6481 17.6689C14.6621 17.6689 14.6627 17.6695 14.6627 17.6836C14.6627 17.7417 14.6627 17.7999 14.6627 17.8581C14.6627 17.8744 14.6626 17.8746 14.6466 17.8746Z" fill="white"/>
<path d="M14.3071 16.8684H14.2559V16.8991H14.3071V16.8684Z" fill="white"/>
<path d="M14.2558 16.8992H14.2046V16.9299H14.2558V16.8992Z" fill="white"/>
<path d="M14.3071 16.9298H14.2559V16.9605H14.3071V16.9298Z" fill="white"/>
<path d="M14.2558 16.9606H14.2046V16.9913H14.2558V16.9606Z" fill="white"/>
<path d="M14.3071 16.9913H14.2559V17.022H14.3071V16.9913Z" fill="white"/>
<path d="M14.2558 17.022H14.2046V17.0527H14.2558V17.022Z" fill="white"/>
<path d="M14.3071 17.0527H14.2559V17.0835H14.3071V17.0527Z" fill="white"/>
<path d="M14.2558 17.0835H14.2046V17.1142H14.2558V17.0835Z" fill="white"/>
<path d="M14.3071 17.1141H14.2559V17.1449H14.3071V17.1141Z" fill="white"/>
<path d="M14.2558 17.1449H14.2046V17.1756H14.2558V17.1449Z" fill="white"/>
<path d="M14.3071 17.1757H14.2559V17.2064H14.3071V17.1757Z" fill="white"/>
<path d="M14.2558 17.2063H14.2046V17.237H14.2558V17.2063Z" fill="white"/>
<path d="M10.1824 17.2835C10.1823 17.2479 10.1545 17.2217 10.1186 17.2212C10.0917 17.2208 10.0944 17.2247 10.0943 17.1959C10.0942 17.1639 10.0941 17.132 10.0944 17.1C10.0945 17.0889 10.0912 17.0798 10.0839 17.0715C10.0156 16.9938 9.94754 16.9158 9.87932 16.8381C9.87582 16.8341 9.87131 16.8309 9.86725 16.8274C9.68616 16.8274 9.5051 16.8274 9.324 16.8274C9.30086 16.8359 9.29078 16.8527 9.29084 16.8772C9.29113 16.9864 9.29095 17.0957 9.29095 17.2049C9.29095 17.2211 9.29087 17.222 9.27493 17.2209C9.2313 17.2179 9.2016 17.2496 9.20216 17.2935C9.20344 17.3948 9.20254 17.4962 9.20256 17.5975C9.20259 17.6435 9.22783 17.6687 9.27396 17.6688C9.29093 17.6689 9.29093 17.6689 9.29093 17.6863C9.29093 17.751 9.2909 17.8157 9.29095 17.8803C9.29098 17.9151 9.30786 17.9319 9.34248 17.9319C9.576 17.932 9.80955 17.932 10.0431 17.9319C10.0771 17.9319 10.0942 17.9149 10.0943 17.8811C10.0943 17.8153 10.0943 17.7496 10.0943 17.6838C10.0943 17.6689 10.0944 17.669 10.1095 17.6688C10.1174 17.6688 10.1252 17.6691 10.133 17.6671C10.1621 17.66 10.1823 17.6367 10.1824 17.6068C10.1829 17.4991 10.183 17.3913 10.1824 17.2835ZM9.35332 16.8715C9.50886 16.8715 9.66439 16.8715 9.8199 16.8715C9.83587 16.8715 9.83604 16.8717 9.83604 16.8879C9.83607 16.9533 9.83601 17.0186 9.83607 17.084C9.8361 17.1077 9.84333 17.1149 9.86696 17.1149C9.92263 17.1149 9.97832 17.1149 10.034 17.1149C10.0473 17.1149 10.0479 17.1155 10.048 17.129C10.0481 17.1548 10.0481 17.1807 10.048 17.2066C10.048 17.2205 10.0473 17.2211 10.0333 17.2211C9.9198 17.2211 9.80629 17.2211 9.69281 17.2211C9.57967 17.2211 9.46651 17.2211 9.35338 17.2211C9.33735 17.2211 9.33729 17.2211 9.33729 17.2048C9.33726 17.0991 9.33726 16.9936 9.33729 16.888C9.33726 16.8717 9.33738 16.8715 9.35332 16.8715ZM10.0319 17.8746C9.91875 17.8746 9.80559 17.8746 9.6924 17.8746C9.57959 17.8746 9.46677 17.8746 9.35396 17.8746C9.33729 17.8746 9.33723 17.8745 9.33723 17.8577C9.3372 17.7995 9.3372 17.7413 9.33726 17.6831C9.33726 17.6696 9.33793 17.6689 9.35119 17.6689C9.57859 17.6689 9.80603 17.6689 10.0334 17.6689C10.0474 17.6689 10.048 17.6695 10.048 17.6836C10.048 17.7417 10.048 17.7999 10.048 17.8581C10.048 17.8744 10.0479 17.8746 10.0319 17.8746Z" fill="white"/>
<path d="M9.37061 17.5566V17.3264H9.45159C9.46252 17.3264 9.47275 17.3282 9.48228 17.3317C9.49181 17.3352 9.50012 17.3402 9.5072 17.3467C9.51425 17.3531 9.51985 17.3607 9.5239 17.3697C9.52798 17.3786 9.53002 17.3884 9.53002 17.3991C9.53002 17.41 9.52798 17.4199 9.5239 17.4288C9.51982 17.4377 9.51425 17.4453 9.5072 17.4518C9.50012 17.4582 9.49181 17.4632 9.48228 17.4667C9.47275 17.4703 9.46252 17.472 9.45159 17.472H9.414V17.5566H9.37061V17.5566ZM9.45223 17.4309C9.4636 17.4309 9.47217 17.4276 9.47794 17.4212C9.48374 17.4148 9.48662 17.4074 9.48662 17.399C9.48662 17.395 9.48592 17.391 9.48452 17.3871C9.48313 17.3833 9.481 17.3799 9.47808 17.377C9.4752 17.3742 9.47159 17.3718 9.4673 17.3701C9.46302 17.3684 9.45798 17.3675 9.45221 17.3675H9.41397V17.4309H9.45223Z" fill="white"/>
<path d="M9.56104 17.3264H9.61148L9.70407 17.4807H9.70663L9.70407 17.4363V17.3264H9.74714V17.5566H9.7015L9.60379 17.3936H9.60122L9.60379 17.4379V17.5566H9.56104V17.3264Z" fill="white"/>
<path d="M9.89934 17.4303H10.0122C10.0128 17.4328 10.0134 17.4359 10.0138 17.4396C10.0142 17.4432 10.0144 17.4469 10.0144 17.4505C10.0144 17.4653 10.0122 17.4792 10.0077 17.4923C10.0032 17.5054 9.99613 17.517 9.98648 17.5273C9.97619 17.5383 9.96387 17.5467 9.94953 17.5527C9.93516 17.5587 9.91878 17.5617 9.90033 17.5617C9.88361 17.5617 9.86787 17.5587 9.85306 17.5527C9.83829 17.5467 9.82544 17.5384 9.81451 17.5276C9.80358 17.517 9.7949 17.5042 9.78846 17.4896C9.78201 17.4749 9.77881 17.4589 9.77881 17.4415C9.77881 17.4242 9.78201 17.4081 9.78846 17.3934C9.7949 17.3788 9.80355 17.3661 9.81451 17.3554C9.82544 17.3447 9.83829 17.3363 9.85306 17.3303C9.86784 17.3243 9.88361 17.3213 9.90033 17.3213C9.91899 17.3213 9.93563 17.3245 9.95031 17.3309C9.965 17.3374 9.97756 17.3463 9.98808 17.3576L9.95821 17.3869C9.95069 17.3789 9.94236 17.3729 9.93312 17.3687C9.92391 17.3645 9.91287 17.3624 9.90001 17.3624C9.88949 17.3624 9.87953 17.3643 9.87011 17.3681C9.86067 17.3718 9.85242 17.3771 9.84534 17.384C9.83829 17.3908 9.83264 17.3991 9.82847 17.4089C9.8243 17.4187 9.8222 17.4295 9.8222 17.4415C9.8222 17.4535 9.8243 17.4644 9.82847 17.4741C9.83264 17.4839 9.83832 17.4922 9.84549 17.4991C9.85266 17.5059 9.86096 17.5112 9.8704 17.515C9.87982 17.5187 9.8899 17.5206 9.90063 17.5206C9.91284 17.5206 9.92315 17.5188 9.93163 17.5153C9.94009 17.5118 9.94731 17.5072 9.95332 17.5016C9.95763 17.4978 9.96133 17.4929 9.96442 17.487C9.96751 17.4811 9.96993 17.4745 9.97165 17.4672H9.89931L9.89934 17.4303Z" fill="white"/>
<path d="M11.2425 17.2835C11.2423 17.2479 11.2145 17.2217 11.1787 17.2212C11.1518 17.2208 11.1545 17.2247 11.1544 17.1959C11.1543 17.1639 11.1542 17.132 11.1545 17.1C11.1546 17.0889 11.1512 17.0798 11.1439 17.0715C11.0757 16.9938 11.0076 16.9158 10.9394 16.8381C10.9359 16.8341 10.9314 16.8309 10.9273 16.8274C10.7462 16.8274 10.5652 16.8274 10.3841 16.8274C10.3609 16.8359 10.3508 16.8527 10.3509 16.8772C10.3512 16.9864 10.351 17.0957 10.351 17.2049C10.351 17.2211 10.3509 17.222 10.335 17.2209C10.2914 17.2179 10.2617 17.2496 10.2622 17.2935C10.2635 17.3948 10.2626 17.4962 10.2626 17.5975C10.2627 17.6435 10.2879 17.6687 10.334 17.6688C10.351 17.6689 10.351 17.6689 10.351 17.6863C10.351 17.751 10.351 17.8157 10.351 17.8803C10.351 17.9151 10.3679 17.9319 10.4025 17.9319C10.6361 17.932 10.8696 17.932 11.1031 17.9319C11.1372 17.9319 11.1543 17.9149 11.1543 17.8811C11.1544 17.8153 11.1543 17.7496 11.1544 17.6838C11.1544 17.6689 11.1544 17.669 11.1695 17.6688C11.1774 17.6688 11.1853 17.6691 11.1931 17.6671C11.2222 17.66 11.2423 17.6367 11.2425 17.6068C11.2429 17.4991 11.243 17.3913 11.2425 17.2835ZM10.4133 16.8715C10.5689 16.8715 10.7244 16.8715 10.8799 16.8715C10.8959 16.8715 10.8961 16.8717 10.8961 16.8879C10.8961 16.9533 10.896 17.0186 10.8961 17.084C10.8961 17.1077 10.9034 17.1149 10.927 17.1149C10.9827 17.1149 11.0383 17.1149 11.094 17.1149C11.1074 17.1149 11.108 17.1155 11.108 17.129C11.1081 17.1548 11.1081 17.1807 11.108 17.2066C11.108 17.2205 11.1073 17.2211 11.0933 17.2211C10.9798 17.2211 10.8663 17.2211 10.7528 17.2211C10.6397 17.2211 10.5265 17.2211 10.4134 17.2211C10.3974 17.2211 10.3973 17.2211 10.3973 17.2048C10.3973 17.0991 10.3973 16.9936 10.3973 16.888C10.3973 16.8717 10.3974 16.8715 10.4133 16.8715ZM11.092 17.8746C10.9788 17.8746 10.8656 17.8746 10.7525 17.8746C10.6396 17.8746 10.5268 17.8746 10.414 17.8746C10.3974 17.8746 10.3973 17.8745 10.3973 17.8577C10.3973 17.7995 10.3973 17.7413 10.3973 17.6831C10.3973 17.6696 10.398 17.6689 10.4113 17.6689C10.6387 17.6689 10.8661 17.6689 11.0935 17.6689C11.1074 17.6689 11.108 17.6695 11.108 17.6836C11.1081 17.7417 11.1081 17.7999 11.108 17.8581C11.1081 17.8744 11.1079 17.8746 11.092 17.8746Z" fill="white"/>
<path d="M10.6914 17.3264H10.741L10.8274 17.5566H10.7795L10.7605 17.5016H10.6718L10.6529 17.5566H10.605L10.6914 17.3264ZM10.7464 17.4618L10.7258 17.4042L10.7175 17.3763H10.7149L10.7065 17.4042L10.686 17.4618H10.7464Z" fill="white"/>
<path d="M10.8727 17.3779C10.8691 17.3779 10.8656 17.3772 10.8623 17.3758C10.8589 17.3744 10.856 17.3724 10.8536 17.37C10.8511 17.3675 10.8492 17.3647 10.8478 17.3614C10.8464 17.3582 10.8457 17.3547 10.8457 17.3508C10.8457 17.347 10.8464 17.3434 10.8478 17.3402C10.8492 17.337 10.8511 17.3342 10.8536 17.3317C10.856 17.3293 10.8589 17.3273 10.8623 17.326C10.8656 17.3246 10.869 17.3239 10.8727 17.3239C10.8802 17.3239 10.8866 17.3265 10.892 17.3317C10.8974 17.337 10.9001 17.3433 10.9001 17.3508C10.9001 17.3583 10.8974 17.3647 10.892 17.37C10.8866 17.3752 10.8802 17.3779 10.8727 17.3779ZM10.8519 17.5566V17.3991H10.894V17.5566H10.8519Z" fill="white"/>
<path d="M12.3216 17.2835C12.3214 17.2479 12.2936 17.2217 12.2578 17.2212C12.2309 17.2208 12.2336 17.2247 12.2335 17.1959C12.2334 17.1639 12.2333 17.132 12.2336 17.1C12.2337 17.0889 12.2303 17.0798 12.223 17.0715C12.1548 16.9938 12.0867 16.9158 12.0185 16.8381C12.015 16.8341 12.0105 16.8309 12.0064 16.8274C11.8253 16.8274 11.6443 16.8274 11.4632 16.8274C11.44 16.8359 11.4299 16.8527 11.43 16.8772C11.4303 16.9864 11.4301 17.0957 11.4301 17.2049C11.4301 17.2211 11.43 17.222 11.4141 17.2209C11.3705 17.2179 11.3408 17.2496 11.3413 17.2935C11.3426 17.3948 11.3417 17.4962 11.3417 17.5975C11.3418 17.6435 11.367 17.6687 11.4131 17.6688C11.4301 17.6689 11.4301 17.6689 11.4301 17.6863C11.4301 17.751 11.4301 17.8157 11.4301 17.8803C11.4301 17.9151 11.447 17.9319 11.4816 17.9319C11.7152 17.932 11.9487 17.932 12.1822 17.9319C12.2163 17.9319 12.2334 17.9149 12.2334 17.8811C12.2335 17.8153 12.2334 17.7496 12.2335 17.6838C12.2335 17.6689 12.2335 17.669 12.2486 17.6688C12.2565 17.6688 12.2644 17.6691 12.2722 17.6671C12.3012 17.66 12.3214 17.6367 12.3216 17.6068C12.322 17.4991 12.3221 17.3913 12.3216 17.2835ZM11.4925 16.8715C11.648 16.8715 11.8035 16.8715 11.959 16.8715C11.975 16.8715 11.9752 16.8717 11.9752 16.8879C11.9752 16.9533 11.9751 17.0186 11.9752 17.084C11.9752 17.1077 11.9825 17.1149 12.0061 17.1149C12.0618 17.1149 12.1174 17.1149 12.1731 17.1149C12.1865 17.1149 12.1871 17.1155 12.1871 17.129C12.1872 17.1548 12.1872 17.1807 12.1871 17.2066C12.1871 17.2205 12.1864 17.2211 12.1724 17.2211C12.0589 17.2211 11.9454 17.2211 11.8319 17.2211C11.7188 17.2211 11.6056 17.2211 11.4925 17.2211C11.4765 17.2211 11.4764 17.2211 11.4764 17.2048C11.4764 17.0991 11.4764 16.9936 11.4764 16.888C11.4764 16.8717 11.4765 16.8715 11.4925 16.8715ZM12.171 17.8746C12.0579 17.8746 11.9447 17.8746 11.8315 17.8746C11.7187 17.8746 11.6059 17.8746 11.4931 17.8746C11.4764 17.8746 11.4764 17.8745 11.4764 17.8577C11.4763 17.7995 11.4763 17.7413 11.4764 17.6831C11.4764 17.6696 11.4771 17.6689 11.4903 17.6689C11.7177 17.6689 11.9452 17.6689 12.1726 17.6689C12.1865 17.6689 12.1871 17.6695 12.1871 17.6836C12.1872 17.7417 12.1871 17.7999 12.1871 17.8581C12.1872 17.8744 12.187 17.8746 12.171 17.8746Z" fill="white"/>
<path d="M11.6024 17.5619C11.5926 17.5619 11.5831 17.5605 11.5741 17.5577C11.5651 17.5549 11.5569 17.5507 11.5494 17.5452C11.5419 17.5396 11.5354 17.5328 11.5298 17.5248C11.5242 17.5167 11.5198 17.5074 11.5166 17.4967L11.5574 17.4806C11.5604 17.4922 11.5657 17.5018 11.5732 17.5094C11.5807 17.517 11.5905 17.5208 11.6027 17.5208C11.6072 17.5208 11.6116 17.5202 11.6158 17.519C11.6199 17.5178 11.6237 17.5161 11.627 17.5139C11.6303 17.5116 11.633 17.5088 11.6349 17.5054C11.6368 17.5019 11.6378 17.498 11.6378 17.4935C11.6378 17.4892 11.637 17.4853 11.6355 17.4819C11.634 17.4785 11.6315 17.4753 11.628 17.4723C11.6245 17.4693 11.6198 17.4664 11.6141 17.4636C11.6085 17.4608 11.6015 17.4579 11.5931 17.4549L11.579 17.4498C11.5728 17.4476 11.5665 17.4447 11.5602 17.4411C11.5538 17.4374 11.5481 17.433 11.543 17.4279C11.5378 17.4228 11.5336 17.4167 11.5303 17.4097C11.5269 17.4028 11.5253 17.3949 11.5253 17.3861C11.5253 17.3771 11.527 17.3687 11.5306 17.3609C11.5341 17.3531 11.5392 17.3462 11.5457 17.3403C11.5522 17.3344 11.56 17.3298 11.5691 17.3265C11.5783 17.3232 11.5884 17.3215 11.5995 17.3215C11.6111 17.3215 11.6211 17.3231 11.6296 17.3262C11.638 17.3293 11.6452 17.3333 11.6511 17.3381C11.657 17.3429 11.6618 17.3482 11.6654 17.354C11.669 17.3598 11.6717 17.3652 11.6734 17.3704L11.6352 17.3865C11.6331 17.38 11.6292 17.3743 11.6235 17.3691C11.6178 17.364 11.61 17.3614 11.6002 17.3614C11.5907 17.3614 11.5829 17.3636 11.5767 17.368C11.5705 17.3724 11.5674 17.3781 11.5674 17.3852C11.5674 17.392 11.5704 17.3979 11.5764 17.4027C11.5824 17.4075 11.5919 17.4121 11.605 17.4167L11.6195 17.4215C11.6287 17.4247 11.6371 17.4284 11.6447 17.4326C11.6523 17.4367 11.6589 17.4417 11.6644 17.4475C11.6698 17.4533 11.674 17.4599 11.6769 17.4673C11.6798 17.4747 11.6812 17.4832 11.6812 17.4928C11.6812 17.5048 11.6788 17.5152 11.674 17.5238C11.6692 17.5325 11.663 17.5396 11.6555 17.5452C11.648 17.5508 11.6396 17.555 11.6301 17.5578C11.6206 17.5605 11.6114 17.5619 11.6024 17.5619Z" fill="white"/>
<path d="M11.6943 17.3264H11.7413L11.7888 17.465L11.7972 17.4945H11.7998L11.8088 17.465L11.8583 17.3264H11.9052L11.8213 17.5566H11.7757L11.6943 17.3264Z" fill="white"/>
<path d="M12.0317 17.4303H12.1445C12.1451 17.4328 12.1457 17.4359 12.1461 17.4396C12.1465 17.4432 12.1468 17.4469 12.1468 17.4505C12.1468 17.4653 12.1445 17.4792 12.14 17.4923C12.1355 17.5054 12.1285 17.517 12.1188 17.5273C12.1085 17.5383 12.0962 17.5467 12.0819 17.5527C12.0675 17.5587 12.0511 17.5617 12.0327 17.5617C12.0159 17.5617 12.0002 17.5587 11.9854 17.5527C11.9706 17.5467 11.9578 17.5384 11.9468 17.5276C11.9359 17.517 11.9272 17.5042 11.9208 17.4896C11.9144 17.4749 11.9111 17.4589 11.9111 17.4415C11.9111 17.4242 11.9143 17.4081 11.9208 17.3934C11.9272 17.3788 11.9359 17.3661 11.9468 17.3554C11.9578 17.3447 11.9706 17.3363 11.9854 17.3303C12.0002 17.3243 12.0159 17.3213 12.0327 17.3213C12.0513 17.3213 12.068 17.3245 12.0826 17.3309C12.0973 17.3374 12.1099 17.3463 12.1204 17.3576L12.0905 17.3869C12.083 17.3789 12.0747 17.3729 12.0654 17.3687C12.0562 17.3645 12.0452 17.3624 12.0323 17.3624C12.0218 17.3624 12.0119 17.3643 12.0024 17.3681C11.993 17.3718 11.9847 17.3771 11.9777 17.384C11.9706 17.3908 11.965 17.3991 11.9608 17.4089C11.9566 17.4187 11.9545 17.4295 11.9545 17.4415C11.9545 17.4535 11.9566 17.4644 11.9608 17.4741C11.965 17.4839 11.9706 17.4922 11.9778 17.4991C11.985 17.5059 11.9933 17.5112 12.0027 17.515C12.0122 17.5187 12.0222 17.5206 12.0329 17.5206C12.0452 17.5206 12.0555 17.5188 12.064 17.5153C12.0724 17.5118 12.0797 17.5072 12.0857 17.5016C12.09 17.4978 12.0937 17.4929 12.0967 17.487C12.0999 17.4811 12.1023 17.4745 12.104 17.4672H12.0316V17.4303H12.0317Z" fill="white"/>
<path d="M13.3782 17.2835C13.3781 17.2479 13.3503 17.2217 13.3144 17.2212C13.2875 17.2208 13.2902 17.2247 13.2901 17.1959C13.29 17.1639 13.2899 17.132 13.2902 17.1C13.2903 17.0889 13.287 17.0798 13.2797 17.0715C13.2114 16.9938 13.1433 16.9158 13.0751 16.8381C13.0716 16.8341 13.0671 16.8309 13.0631 16.8274C12.882 16.8274 12.7009 16.8274 12.5198 16.8274C12.4967 16.8359 12.4866 16.8527 12.4866 16.8772C12.4869 16.9864 12.4868 17.0957 12.4868 17.2049C12.4868 17.2211 12.4867 17.222 12.4707 17.2209C12.4271 17.2179 12.3974 17.2496 12.398 17.2935C12.3992 17.3948 12.3983 17.4962 12.3984 17.5975C12.3984 17.6435 12.4236 17.6687 12.4698 17.6688C12.4867 17.6689 12.4867 17.6689 12.4867 17.6863C12.4867 17.751 12.4867 17.8157 12.4868 17.8803C12.4868 17.9151 12.5037 17.9319 12.5383 17.9319C12.7718 17.932 13.0054 17.932 13.2389 17.9319C13.2729 17.9319 13.29 17.9149 13.2901 17.8811C13.2901 17.8153 13.2901 17.7496 13.2901 17.6838C13.2901 17.6689 13.2902 17.669 13.3053 17.6688C13.3132 17.6688 13.321 17.6691 13.3288 17.6671C13.3579 17.66 13.3781 17.6367 13.3782 17.6068C13.3787 17.4991 13.3788 17.3913 13.3782 17.2835ZM12.5491 16.8715C12.7047 16.8715 12.8602 16.8715 13.0157 16.8715C13.0317 16.8715 13.0318 16.8717 13.0318 16.8879C13.0319 16.9533 13.0318 17.0186 13.0319 17.084C13.0319 17.1077 13.0391 17.1149 13.0628 17.1149C13.1184 17.1149 13.1741 17.1149 13.2298 17.1149C13.2431 17.1149 13.2437 17.1155 13.2438 17.129C13.2439 17.1548 13.2439 17.1807 13.2438 17.2066C13.2438 17.2205 13.2431 17.2211 13.2291 17.2211C13.1156 17.2211 13.0021 17.2211 12.8886 17.2211C12.7755 17.2211 12.6623 17.2211 12.5492 17.2211C12.5332 17.2211 12.5331 17.2211 12.5331 17.2048C12.5331 17.0991 12.5331 16.9936 12.5331 16.888C12.5331 16.8717 12.5332 16.8715 12.5491 16.8715ZM13.2277 17.8746C13.1146 17.8746 13.0014 17.8746 12.8882 17.8746C12.7754 17.8746 12.6626 17.8746 12.5498 17.8746C12.5331 17.8746 12.533 17.8745 12.533 17.8577C12.533 17.7995 12.533 17.7413 12.5331 17.6831C12.5331 17.6696 12.5337 17.6689 12.547 17.6689C12.7744 17.6689 13.0018 17.6689 13.2292 17.6689C13.2432 17.6689 13.2438 17.6695 13.2438 17.6836C13.2438 17.7417 13.2438 17.7999 13.2438 17.8581C13.2438 17.8744 13.2437 17.8746 13.2277 17.8746Z" fill="white"/>
<path d="M12.6694 17.3677V17.421H12.7616V17.4622H12.6694V17.5155H12.7719V17.5567H12.626V17.3265H12.7719V17.3677L12.6694 17.3677Z" fill="white"/>
<path d="M12.8115 17.5567V17.3265H12.8925C12.9034 17.3265 12.9137 17.3283 12.9232 17.3318C12.9327 17.3354 12.941 17.3404 12.9481 17.3468C12.9552 17.3532 12.9608 17.3609 12.9648 17.3698C12.9689 17.3787 12.9709 17.3885 12.9709 17.3992C12.9709 17.4101 12.9689 17.42 12.9648 17.4289C12.9608 17.4378 12.9552 17.4455 12.9481 17.4519C12.941 17.4584 12.9327 17.4633 12.9232 17.4669C12.9137 17.4704 12.9034 17.4722 12.8925 17.4722H12.8549V17.5567H12.8115V17.5567ZM12.8932 17.431C12.9045 17.431 12.9131 17.4278 12.9189 17.4213C12.9247 17.4149 12.9275 17.4075 12.9275 17.3992C12.9275 17.3951 12.9268 17.3911 12.9254 17.3873C12.924 17.3834 12.9219 17.38 12.919 17.3772C12.9161 17.3743 12.9125 17.372 12.9082 17.3703C12.9039 17.3685 12.8989 17.3677 12.8931 17.3677H12.8549V17.431H12.8932Z" fill="white"/>
<path d="M13.0726 17.5618C13.0628 17.5618 13.0533 17.5604 13.0443 17.5576C13.0353 17.5548 13.0271 17.5506 13.0196 17.5451C13.0121 17.5395 13.0056 17.5327 13 17.5247C12.9944 17.5166 12.99 17.5073 12.9868 17.4965L13.0276 17.4805C13.0306 17.492 13.0359 17.5016 13.0434 17.5092C13.0509 17.5168 13.0608 17.5207 13.073 17.5207C13.0775 17.5207 13.0818 17.5201 13.086 17.5189C13.0902 17.5177 13.0939 17.516 13.0973 17.5138C13.1006 17.5115 13.1032 17.5087 13.1051 17.5052C13.1071 17.5018 13.1081 17.4978 13.1081 17.4934C13.1081 17.4891 13.1073 17.4852 13.1058 17.4818C13.1043 17.4784 13.1018 17.4752 13.0983 17.4721C13.0947 17.4691 13.0901 17.4663 13.0844 17.4635C13.0788 17.4607 13.0717 17.4578 13.0634 17.4548L13.0492 17.4496C13.043 17.4475 13.0368 17.4446 13.0304 17.441C13.0241 17.4373 13.0184 17.4329 13.0132 17.4278C13.0081 17.4227 13.0039 17.4166 13.0005 17.4096C12.9972 17.4027 12.9956 17.3948 12.9956 17.386C12.9956 17.377 12.9973 17.3686 13.0009 17.3608C13.0044 17.353 13.0094 17.3461 13.016 17.3402C13.0225 17.3343 13.0303 17.3297 13.0394 17.3264C13.0485 17.3231 13.0587 17.3214 13.0698 17.3214C13.0814 17.3214 13.0914 17.323 13.0998 17.3261C13.1083 17.3292 13.1155 17.3332 13.1214 17.338C13.1273 17.3428 13.132 17.3481 13.1357 17.3539C13.1393 17.3597 13.142 17.3651 13.1437 17.3703L13.1055 17.3863C13.1033 17.3799 13.0994 17.3741 13.0937 17.369C13.0881 17.3638 13.0803 17.3612 13.0705 17.3612C13.061 17.3612 13.0532 17.3634 13.047 17.3678C13.0408 17.3722 13.0377 17.378 13.0377 17.385C13.0377 17.3919 13.0407 17.3977 13.0467 17.4025C13.0527 17.4074 13.0622 17.412 13.0753 17.4165L13.0897 17.4213C13.099 17.4246 13.1074 17.4282 13.115 17.4324C13.1226 17.4366 13.1291 17.4416 13.1346 17.4474C13.14 17.4532 13.1442 17.4598 13.1471 17.4672C13.15 17.4746 13.1515 17.4831 13.1515 17.4927C13.1515 17.5047 13.1491 17.5151 13.1442 17.5237C13.1394 17.5324 13.1333 17.5395 13.1258 17.5451C13.1183 17.5507 13.1098 17.5549 13.1004 17.5576C13.0909 17.5604 13.0816 17.5618 13.0726 17.5618Z" fill="white"/>
<path d="M14.0806 17.5128L14.1973 17.3676H14.0857V17.3264H14.2477V17.3701L14.1323 17.5154H14.249V17.5566H14.0806L14.0806 17.5128Z" fill="white"/>
<path d="M14.2852 17.3264H14.3286V17.5566H14.2852V17.3264Z" fill="white"/>
<path d="M14.3745 17.5567V17.3265H14.4555C14.4664 17.3265 14.4767 17.3283 14.4862 17.3318C14.4957 17.3354 14.504 17.3404 14.5111 17.3468C14.5182 17.3532 14.5238 17.3609 14.5278 17.3698C14.5319 17.3787 14.5339 17.3885 14.5339 17.3992C14.5339 17.4101 14.5319 17.42 14.5278 17.4289C14.5238 17.4378 14.5182 17.4455 14.5111 17.4519C14.504 17.4584 14.4957 17.4633 14.4862 17.4669C14.4767 17.4704 14.4664 17.4722 14.4555 17.4722H14.4179V17.5567H14.3745V17.5567ZM14.4562 17.431C14.4675 17.431 14.4761 17.4278 14.4819 17.4213C14.4877 17.4149 14.4906 17.4075 14.4906 17.3992C14.4906 17.3951 14.4899 17.3911 14.4885 17.3873C14.4871 17.3834 14.4849 17.38 14.482 17.3772C14.4791 17.3743 14.4756 17.372 14.4712 17.3703C14.467 17.3685 14.4619 17.3677 14.4561 17.3677H14.4179V17.431H14.4562Z" fill="white"/>
</g>
<g opacity="0.61">
<path d="M13.4609 17.3409H13.7252V17.4063H13.4609V17.3409ZM13.4609 17.4536H13.7252V17.519H13.4609V17.4536Z" fill="white"/>
</g>
<g opacity="0.61">
<path d="M9.28271 18.6702H9.32955C9.36636 18.6702 9.39116 18.6938 9.39116 18.7277C9.39116 18.7615 9.36636 18.7852 9.32955 18.7852H9.28271V18.6702ZM9.32888 18.7747C9.35945 18.7747 9.37915 18.7553 9.37915 18.7277C9.37915 18.7001 9.35942 18.6807 9.32888 18.6807H9.29487V18.7747H9.32888Z" fill="white"/>
<path d="M9.52686 18.7277C9.52686 18.6942 9.55247 18.6692 9.58733 18.6692C9.62183 18.6692 9.64762 18.694 9.64762 18.7277C9.64762 18.7614 9.62183 18.7862 9.58733 18.7862C9.5525 18.7862 9.52686 18.7612 9.52686 18.7277ZM9.63547 18.7277C9.63547 18.7002 9.61493 18.68 9.58733 18.68C9.55955 18.68 9.53886 18.7002 9.53886 18.7277C9.53886 18.7551 9.55955 18.7753 9.58733 18.7753C9.61495 18.7753 9.63547 18.7551 9.63547 18.7277Z" fill="white"/>
<path d="M9.94841 18.6702L9.90962 18.7852H9.89679L9.8631 18.6871L9.82927 18.7852H9.81662L9.77783 18.6702H9.79033L9.82353 18.7691L9.85786 18.6702H9.8692L9.90303 18.7696L9.93672 18.6702H9.94841Z" fill="white"/>
<path d="M10.1855 18.6702V18.7852H10.1754L10.1015 18.6919V18.7852H10.0894V18.6702H10.0994L10.1735 18.7635V18.6702H10.1855Z" fill="white"/>
<path d="M10.3418 18.6702H10.3539V18.7747H10.4184V18.7852H10.3418V18.6702Z" fill="white"/>
<path d="M10.5449 18.7277C10.5449 18.6942 10.5705 18.6692 10.6054 18.6692C10.6399 18.6692 10.6657 18.694 10.6657 18.7277C10.6657 18.7614 10.6399 18.7862 10.6054 18.7862C10.5706 18.7862 10.5449 18.7612 10.5449 18.7277ZM10.6535 18.7277C10.6535 18.7002 10.633 18.68 10.6054 18.68C10.5776 18.68 10.5569 18.7002 10.5569 18.7277C10.5569 18.7551 10.5776 18.7753 10.6054 18.7753C10.633 18.7753 10.6535 18.7551 10.6535 18.7277Z" fill="white"/>
<path d="M10.8821 18.7545H10.818L10.8042 18.7852H10.7915L10.8441 18.6702H10.8561L10.9087 18.7852H10.8958L10.8821 18.7545ZM10.8776 18.7446L10.85 18.6828L10.8224 18.7446H10.8776Z" fill="white"/>
<path d="M11.0464 18.6702H11.0932C11.13 18.6702 11.1548 18.6938 11.1548 18.7277C11.1548 18.7615 11.13 18.7852 11.0932 18.7852H11.0464V18.6702ZM11.0925 18.7747C11.1231 18.7747 11.1428 18.7553 11.1428 18.7277C11.1428 18.7001 11.1231 18.6807 11.0925 18.6807H11.0585V18.7747H11.0925Z" fill="white"/>
<path d="M11.5349 18.7545H11.4708L11.457 18.7852H11.4443L11.4969 18.6702H11.5089L11.5615 18.7852H11.5487L11.5349 18.7545ZM11.5305 18.7446L11.5029 18.6828L11.4753 18.7446H11.5305Z" fill="white"/>
<path d="M11.6997 18.6702H11.7119V18.7747H11.7763V18.7852H11.6997V18.6702Z" fill="white"/>
<path d="M11.915 18.6702H11.9272V18.7747H11.9916V18.7852H11.915V18.6702Z" fill="white"/>
<path d="M12.3046 18.6807V18.7259H12.3641V18.7364H12.3046V18.7852H12.2925V18.6702H12.3713V18.6807L12.3046 18.6807Z" fill="white"/>
<path d="M12.5151 18.6702H12.5273V18.7852H12.5151V18.6702Z" fill="white"/>
<path d="M12.6836 18.6702H12.6957V18.7747H12.7602V18.7852H12.6836V18.6702Z" fill="white"/>
<path d="M12.9808 18.7747V18.7852H12.8994V18.6702H12.9783V18.6807H12.9116V18.7216H12.971V18.7319H12.9116V18.7747H12.9808Z" fill="white"/>
<path d="M13.3022 18.6807V18.7259H13.3617V18.7364H13.3022V18.7852H13.29V18.6702H13.3689V18.6807L13.3022 18.6807Z" fill="white"/>
<path d="M13.501 18.7277C13.501 18.6942 13.5266 18.6692 13.5614 18.6692C13.596 18.6692 13.6217 18.694 13.6217 18.7277C13.6217 18.7614 13.596 18.7862 13.5614 18.7862C13.5266 18.7862 13.501 18.7612 13.501 18.7277ZM13.6096 18.7277C13.6096 18.7002 13.589 18.68 13.5614 18.68C13.5336 18.68 13.513 18.7002 13.513 18.7277C13.513 18.7551 13.5336 18.7753 13.5614 18.7753C13.589 18.7753 13.6096 18.7551 13.6096 18.7277Z" fill="white"/>
<path d="M13.8461 18.7852L13.8198 18.7482C13.8169 18.7485 13.8139 18.7487 13.8106 18.7487H13.7797V18.7852H13.7676V18.6702H13.8106C13.8399 18.6702 13.8576 18.6849 13.8576 18.7096C13.8576 18.7277 13.8481 18.7403 13.8313 18.7457L13.8594 18.7852H13.8461V18.7852ZM13.8454 18.7096C13.8454 18.6912 13.8333 18.6807 13.8103 18.6807H13.7797V18.7384H13.8103C13.8333 18.7384 13.8454 18.7277 13.8454 18.7096Z" fill="white"/>
<path d="M14.1248 18.6702V18.7852H14.1132V18.6932L14.068 18.7706H14.0622L14.017 18.6937V18.7852H14.0054V18.6702H14.0154L14.0653 18.7554L14.1148 18.6702L14.1248 18.6702Z" fill="white"/>
<path d="M14.3532 18.7545H14.2891L14.2753 18.7852H14.2627L14.3153 18.6702H14.3272L14.3798 18.7852H14.367L14.3532 18.7545ZM14.3488 18.7446L14.3212 18.6828L14.2936 18.7446H14.3488Z" fill="white"/>
<path d="M14.5341 18.6807H14.4937V18.6702H14.5867V18.6807H14.5463V18.7852H14.5341V18.6807H14.5341Z" fill="white"/>
<path d="M14.7124 18.7713L14.7172 18.762C14.7254 18.77 14.74 18.7759 14.7551 18.7759C14.7767 18.7759 14.786 18.7669 14.786 18.7556C14.786 18.724 14.7152 18.7434 14.7152 18.7009C14.7152 18.6839 14.7283 18.6693 14.7576 18.6693C14.7706 18.6693 14.7841 18.6731 14.7933 18.6795L14.7892 18.6892C14.7793 18.6828 14.7678 18.6797 14.7576 18.6797C14.7366 18.6797 14.7272 18.689 14.7272 18.7006C14.7272 18.7321 14.798 18.7131 14.798 18.7549C14.798 18.7719 14.7846 18.7863 14.7551 18.7863C14.7379 18.7863 14.7209 18.7802 14.7124 18.7713Z" fill="white"/>
</g>
<path d="M18.5572 16.0982C18.5572 17.4563 17.4563 18.5572 16.0982 18.5572H7.9018C6.54377 18.5572 5.44287 17.4563 5.44287 16.0982V7.9018C5.44287 6.54377 6.54377 5.44287 7.9018 5.44287H16.0982C17.4563 5.44287 18.5572 6.54377 18.5572 7.9018V16.0982Z" fill="#336AEA"/>
<path d="M11.1804 15.8421C11.1804 15.9835 11.0657 16.0982 10.9243 16.0982H8.15799C8.01653 16.0982 7.90186 15.9835 7.90186 15.8421V15.1249C7.90186 14.9834 8.01653 14.8687 8.15799 14.8687H10.9243C11.0657 14.8687 11.1804 14.9834 11.1804 15.1249V15.8421ZM15.8421 9.95091C15.9836 9.95091 16.0983 9.83621 16.0983 9.69478V8.1579C16.0983 8.01644 15.9836 7.90176 15.8421 7.90176L8.15799 7.90173C8.01653 7.90173 7.90186 8.01641 7.90186 8.15787V13.793C7.90186 13.9344 8.01653 14.0491 8.15799 14.0491H10.9243C11.0657 14.0491 11.1804 13.9344 11.1804 13.793V13.0758C11.1804 12.9343 11.2951 12.8196 11.4366 12.8196H15.8421C15.9836 12.8196 16.0983 12.705 16.0983 12.5635V11.0267C16.0983 10.8853 15.9836 10.7706 15.8421 10.7706H11.4366C11.2951 10.7706 11.1804 10.6559 11.1804 10.5144V10.2071C11.1804 10.0656 11.2951 9.95094 11.4366 9.95094H15.8421V9.95091Z" fill="white"/>
</svg>
