<svg width="24" height="24" viewBox="0 0 24 24" fill="none" xmlns="http://www.w3.org/2000/svg">
<path d="M5.88916 6.05554H18.1114V17.9445H5.88916V6.05554Z" fill="url(#paint0_radial_306_5230)"/>
<path d="M5.88905 6.05555H18.1113V17.9445H5.88905V6.05555ZM5.3335 18.5H18.6669V5.5H5.3335V18.5ZM13.7669 10.9C13.6835 10.8611 13.5724 10.8444 13.4391 10.8444C12.7224 10.8444 12.2224 11.3945 12.2224 12.3111C12.2224 13.3556 12.7335 13.7778 13.3724 13.7778C13.5113 13.7778 13.6557 13.7611 13.7669 13.7111V10.9ZM13.4724 9.99445C13.5891 9.99445 13.6557 9.99445 13.7668 10.0056V8.52778C13.7668 8.48889 13.7946 8.47223 13.8224 8.47223H14.7224C14.7668 8.47223 14.7779 8.48889 14.7779 8.51667V13.7111C14.7779 13.8667 14.7779 14.0611 14.8057 14.2722C14.8057 14.3111 14.7946 14.3167 14.7557 14.3389C14.2779 14.5667 13.7724 14.6667 13.3002 14.6667C12.0724 14.6667 11.1946 13.9056 11.1946 12.3556C11.1891 11.0278 12.0668 9.99445 13.4724 9.99445V9.99445ZM10.2113 14.5111C10.2113 14.5667 10.2002 14.5834 10.1391 14.5834H9.28351C9.22796 14.5834 9.21128 14.5556 9.21128 14.5111V8.54444C9.21128 8.48889 9.23905 8.47221 9.28351 8.47221H10.1446C10.1891 8.47221 10.2113 8.48887 10.2113 8.53889V14.5111Z" fill="#FF408C"/>
<defs>
<radialGradient id="paint0_radial_306_5230" cx="0" cy="0" r="1" gradientUnits="userSpaceOnUse" gradientTransform="translate(9.91457 8.71986) scale(9.2889 8.99336)">
<stop stop-color="#4B2B36" stop-opacity="0.98"/>
<stop offset="1" stop-color="#250012"/>
</radialGradient>
</defs>
</svg>
