<svg width="24" height="24" viewBox="0 0 24 24" fill="none" xmlns="http://www.w3.org/2000/svg">
<rect width="24" height="24" rx="2" fill="white"/>
<path d="M8.16628 7.72326C8.92545 7.71217 9.53295 7.08971 9.52558 6.3305C9.51821 5.57129 8.89874 4.96074 8.1395 4.96437C7.38026 4.96803 6.76668 5.5845 6.7666 6.34374C6.76786 6.71273 6.91638 7.06595 7.17918 7.32497C7.44198 7.58398 7.79731 7.72736 8.16628 7.72326Z" fill="#FF0066"/>
<path d="M5.26451 15.1086C5.18504 15.4482 5.1435 15.7956 5.14067 16.1444C5.14067 17.3588 5.79923 18.1652 7.19891 18.1652C8.35955 18.1652 9.30131 17.4759 9.97811 16.3623L9.56435 18.0231H11.8684L13.1864 12.7432C13.5157 11.4049 14.1531 10.7108 15.1208 10.7108C15.8821 10.7108 16.3554 11.1841 16.3554 11.9665C16.3591 12.2173 16.3245 12.4673 16.2527 12.7076L15.5739 15.1355C15.4768 15.4698 15.4283 15.8164 15.43 16.1646C15.43 17.3166 16.1087 18.1614 17.5285 18.1614C18.7429 18.1614 19.7106 17.3799 20.2453 15.507L19.34 15.1566C18.8869 16.4123 18.4962 16.6388 18.188 16.6388C17.8799 16.6388 17.7138 16.4334 17.7138 16.0215C17.7227 15.8054 17.7572 15.5911 17.8165 15.3831L18.476 13.0167C18.6241 12.5303 18.7004 12.0248 18.7026 11.5163C18.7026 9.74603 17.6322 8.82251 16.3352 8.82251C15.1208 8.82251 13.8863 9.91787 13.269 11.0708L13.7211 9.00107H10.2027L9.70835 10.8251H11.3557L10.3419 14.8801C9.54515 16.6503 8.08211 16.6791 7.89875 16.6379C7.59731 16.5697 7.40531 16.4555 7.40531 16.0619C7.4141 15.7432 7.46247 15.4268 7.54931 15.1201L9.09299 8.99627H5.18387L4.69043 10.8203H6.31571L5.26451 15.1086Z" fill="#FF0066"/>
</svg>
