<svg width="24" height="24" viewBox="0 0 24 24" fill="none" xmlns="http://www.w3.org/2000/svg">
<path d="M5.3335 5.44446H18.6668V18.5556H5.3335V5.44446Z" fill="url(#paint0_linear_306_5242)"/>
<path d="M6.39404 6.48718H17.6067V17.5131H6.39404V6.48718Z" fill="url(#paint1_linear_306_5242)"/>
<path d="M8.55571 9.13973C8.55571 9.13973 9.39873 9.11755 10.0927 9.11755C10.7939 9.11755 11.2939 9.28253 11.6296 9.57244C11.9505 9.8464 12.1668 10.3134 12.1668 10.8451C12.1668 11.3767 12.0026 11.8117 11.7042 12.1176C11.3162 12.5123 10.8641 12.746 10.0927 12.7783C9.87958 12.7872 9.68233 12.7893 9.68233 12.7893V14.5175H8.55566L8.55571 9.13973V9.13973ZM9.68229 11.8319C9.80469 11.8438 9.8814 11.838 10.0628 11.8359C10.6672 11.8286 11.0401 11.4611 11.0401 10.9053C11.0401 10.406 10.7326 9.99609 10.1524 9.97484C9.92118 9.9664 9.68229 9.97484 9.68229 9.97484V11.8319V11.8319Z" fill="url(#paint2_linear_306_5242)"/>
<path d="M12.5968 13.3136C12.8239 13.4529 13.3597 13.6616 13.725 13.6616C14.0981 13.6616 14.2522 13.5301 14.2522 13.3251C14.2522 13.1198 14.1305 12.9041 13.668 12.7482C12.8485 12.4692 12.532 12.1351 12.5402 11.6676C12.5402 10.9124 13.173 10.3462 14.1548 10.3462C14.6173 10.3462 14.9867 10.4974 15.2299 10.6204V11.5267C15.0513 11.4281 14.5361 11.2081 14.1954 11.2081C13.895 11.2081 13.7247 11.3312 13.7247 11.5361C13.7247 11.7249 13.879 11.8234 14.3658 11.9959C15.1202 12.2585 15.4367 12.6441 15.4447 13.2349C15.4447 13.9818 14.869 14.5757 13.7247 14.5397C13.332 14.5273 12.897 14.3721 12.5967 14.2082L12.5968 13.3136V13.3136Z" fill="url(#paint3_linear_306_5242)"/>
<defs>
<linearGradient id="paint0_linear_306_5242" x1="8.57372" y1="4.75975" x2="13.6848" y2="15.5598" gradientUnits="userSpaceOnUse">
<stop stop-color="#A0CBFF"/>
<stop offset="0.394" stop-color="#A0CBFE"/>
<stop offset="0.583" stop-color="#8EC2FC"/>
<stop offset="0.784" stop-color="#83BCFB"/>
<stop offset="1" stop-color="#7FBAFB"/>
</linearGradient>
<linearGradient id="paint1_linear_306_5242" x1="10.3881" y1="6.64256" x2="13.277" y2="16.2426" gradientUnits="userSpaceOnUse">
<stop stop-color="#090058"/>
<stop offset="1" stop-color="#070033"/>
</linearGradient>
<linearGradient id="paint2_linear_306_5242" x1="6.98411" y1="5.3344" x2="12.0952" y2="16.1343" gradientUnits="userSpaceOnUse">
<stop stop-color="#A0CBFF"/>
<stop offset="0.394" stop-color="#A0CBFE"/>
<stop offset="0.583" stop-color="#8EC2FC"/>
<stop offset="0.784" stop-color="#83BCFB"/>
<stop offset="1" stop-color="#7FBAFB"/>
</linearGradient>
<linearGradient id="paint3_linear_306_5242" x1="9.89544" y1="3.92428" x2="15.0268" y2="14.767" gradientUnits="userSpaceOnUse">
<stop stop-color="#A0CBFF"/>
<stop offset="0.394" stop-color="#A0CBFE"/>
<stop offset="0.583" stop-color="#8EC2FC"/>
<stop offset="0.784" stop-color="#83BCFB"/>
<stop offset="1" stop-color="#7FBAFB"/>
</linearGradient>
</defs>
</svg>
