<svg width="24" height="24" viewBox="0 0 24 24" fill="none" xmlns="http://www.w3.org/2000/svg">
<path d="M5.86279 6.05554H18.085V17.9445H5.86279V6.05554Z" fill="#00005B"/>
<path d="M5.86268 6.05555H18.0849V17.9444H5.86268V6.05555ZM5.30713 18.5H18.6405V5.5H5.30713V18.5Z" fill="#9999FF"/>
<path d="M8.45557 14.4479V9.08846C8.45557 9.05203 8.47079 9.03122 8.5063 9.03122C8.59255 9.03122 8.67372 9.03122 8.7904 9.02602C8.91216 9.02081 9.03899 9.02081 9.17597 9.01561C9.31295 9.01041 9.46008 9.01041 9.61735 9.0052C9.77462 9 9.92682 9 10.079 9C10.495 9 10.84 9.05203 11.1241 9.1613C11.3778 9.24976 11.6112 9.39546 11.8039 9.58798C11.9663 9.75449 12.0931 9.95742 12.1743 10.1812C12.2504 10.3997 12.291 10.6235 12.291 10.8576C12.291 11.3051 12.1895 11.6745 11.9866 11.9659C11.7836 12.2573 11.4995 12.4759 11.1698 12.6007C10.8248 12.7308 10.4443 12.7776 10.0283 12.7776C9.90653 12.7776 9.82535 12.7776 9.77462 12.7724C9.72389 12.7672 9.65286 12.7672 9.55647 12.7672V14.4375C9.56154 14.4739 9.53618 14.5052 9.50066 14.5104H9.48037H8.51645C8.47586 14.5104 8.45557 14.4896 8.45557 14.4427V14.4479ZM9.56154 10.0407V11.789C9.63257 11.7942 9.69852 11.7994 9.7594 11.7994H10.0283C10.2261 11.7994 10.424 11.7682 10.6117 11.7058C10.7741 11.6589 10.9161 11.5601 11.0277 11.43C11.1343 11.2999 11.185 11.123 11.185 10.894C11.1901 10.7327 11.1495 10.5714 11.0683 10.4309C10.9821 10.2956 10.8603 10.1916 10.7132 10.1343C10.5255 10.0563 10.3225 10.0251 10.1145 10.0303C9.98263 10.0303 9.86594 10.0303 9.76955 10.0355C9.66808 10.0303 9.59706 10.0355 9.56154 10.0407Z" fill="#9999FF"/>
<path d="M13.0214 10.3477H13.9093C13.96 10.3477 14.0006 10.3841 14.0158 10.4309C14.031 10.4725 14.0412 10.5142 14.0462 10.561C14.0564 10.613 14.0665 10.6703 14.0716 10.7223C14.0767 10.7795 14.0817 10.842 14.0817 10.9096C14.2339 10.7275 14.4166 10.5766 14.6246 10.4621C14.858 10.3269 15.1268 10.2592 15.3957 10.2592C15.4312 10.254 15.4617 10.28 15.4668 10.3164V10.3373V11.3519C15.4668 11.3935 15.4414 11.4092 15.3856 11.4092C15.2029 11.4039 15.0152 11.4196 14.8377 11.4612C14.6905 11.4924 14.5485 11.5392 14.4115 11.6017C14.3151 11.6485 14.2238 11.7109 14.1528 11.7942V14.4479C14.1528 14.5 14.1325 14.5208 14.0868 14.5208H13.0874C13.0468 14.526 13.0113 14.5 13.0062 14.4583V14.4375V11.5548C13.0062 11.43 13.0062 11.2999 13.0011 11.1646C12.9961 11.0293 12.9961 10.894 12.991 10.7587C12.991 10.6391 12.9808 10.5246 12.9707 10.4049C12.9656 10.3789 12.9808 10.3529 13.0062 10.3477C13.0062 10.3425 13.0164 10.3425 13.0214 10.3477Z" fill="#9999FF"/>
</svg>
