<svg width="24" height="24" viewBox="0 0 24 24" fill="none" xmlns="http://www.w3.org/2000/svg">
<path fill-rule="evenodd" clip-rule="evenodd" d="M8.07121 10.2795L12.0372 17.9983L5.37109 10.2795H8.07121Z" fill="#EA6C00"/>
<path fill-rule="evenodd" clip-rule="evenodd" d="M16.0045 10.2795L12.0385 17.9983L18.7046 10.2795H16.0045Z" fill="#EA6C00"/>
<path fill-rule="evenodd" clip-rule="evenodd" d="M8.07129 10.2795H16.0033L12.0373 17.9983L8.07129 10.2795Z" fill="#FDAD00"/>
<path fill-rule="evenodd" clip-rule="evenodd" d="M12.0373 6.00183L8.28003 6.39675L8.07129 10.2796L12.0373 6.00183Z" fill="#FDD231"/>
<path fill-rule="evenodd" clip-rule="evenodd" d="M12.0369 6.00183L15.7942 6.39675L16.0029 10.2796L12.0369 6.00183Z" fill="#FDD231"/>
<path fill-rule="evenodd" clip-rule="evenodd" d="M18.7046 10.2795L15.7957 6.39673L16.0045 10.2795H18.7046Z" fill="#FDAD00"/>
<path fill-rule="evenodd" clip-rule="evenodd" d="M5.37109 10.2795L8.27995 6.39673L8.07121 10.2795H5.37109Z" fill="#FDAD00"/>
<path fill-rule="evenodd" clip-rule="evenodd" d="M12.0373 6.00183L8.07129 10.2796H16.0033L12.0373 6.00183Z" fill="#FEEEB7"/>
</svg>
