<svg width="24" height="24" viewBox="0 0 24 24" fill="none" xmlns="http://www.w3.org/2000/svg">
<rect width="24" height="24" rx="2" fill="white"/>
<path d="M10.2497 6.69682C10.4584 6.5229 10.7366 6.5229 10.9453 6.7316C11.4323 7.21857 11.954 7.74032 12.441 8.22729L11.7106 8.99252L10.7714 8.05337C10.6671 7.94902 10.5279 7.94902 10.3888 8.01859C10.3888 8.01859 10.3888 8.01859 10.354 8.05337C9.24093 9.13165 8.16265 10.2447 7.04958 11.3578C6.94523 11.4621 6.91045 11.6361 7.0148 11.7404L7.04958 11.7752C8.09308 12.8187 9.13658 13.8622 10.1801 14.9057C10.2497 15.01 10.354 15.0796 10.4584 15.1492C10.5627 15.184 10.7018 15.1492 10.7714 15.0796L11.6758 14.1752L12.4062 14.9405L11.0149 16.3318C10.9105 16.4362 10.8062 16.5057 10.7018 16.5753C10.4931 16.6449 10.2844 16.5753 10.1453 16.4362C8.6844 14.9753 7.18872 13.4796 5.72781 12.0187C5.51911 11.81 5.51911 11.4621 5.72781 11.2534C7.25828 9.68819 8.75397 8.19251 10.2497 6.69682Z" fill="#9187F6"/>
<path d="M13.9364 6.69681C14.1451 6.48811 14.493 6.48811 14.7017 6.69681L19.1192 11.1143C19.2583 11.2534 19.3279 11.4621 19.2583 11.6708C19.1887 11.81 19.0844 11.9143 18.98 12.0187L14.8408 16.1927C14.7365 16.297 14.6321 16.4014 14.493 16.4709C14.2843 16.5405 14.0756 16.4709 13.9364 16.3318L12.4407 14.8709L11.7103 14.1404L9.48416 11.9143C9.27546 11.7056 9.27546 11.3578 9.48416 11.1839L11.6755 8.99251L12.4407 8.22727C12.9277 7.70552 13.4495 7.21856 13.9364 6.69681Z" fill="#8313DD"/>
</svg>
