<svg width="24" height="24" viewBox="0 0 24 24" fill="none" xmlns="http://www.w3.org/2000/svg">
<g clip-path="url(#clip0_306_5284)">
<path fill-rule="evenodd" clip-rule="evenodd" d="M17.9499 8.502H17.8366C17.6937 8.50246 17.5523 8.53123 17.4204 8.58667C17.2886 8.64211 17.169 8.72313 17.0683 8.82511C16.9676 8.92708 16.8879 9.048 16.8338 9.18096C16.7796 9.31392 16.752 9.45632 16.7526 9.6V12.056C16.7526 12.546 16.3528 12.9435 15.8775 12.9435C15.7337 12.9423 15.5923 12.9065 15.465 12.8393C15.3377 12.7721 15.2282 12.6753 15.1456 12.557L12.6734 8.975C12.5729 8.82841 12.4385 8.70858 12.2817 8.62584C12.1249 8.54309 11.9505 8.4999 11.7734 8.5C11.2096 8.5 10.7024 8.986 10.7024 9.5865V12.0565C10.7024 12.5465 10.3061 12.944 9.8273 12.944C9.54388 12.944 9.26245 12.7995 9.09539 12.5575L6.32884 8.549C6.26619 8.459 6.12598 8.5035 6.12598 8.614V10.756C6.12598 10.864 6.15879 10.969 6.21945 11.058L8.94175 15.0025C9.10285 15.2355 9.33952 15.4085 9.61349 15.4715C10.2982 15.6295 10.9286 15.0945 10.9286 14.413V11.945C10.9286 11.455 11.32 11.0575 11.8038 11.0575H11.8048C12.0961 11.0575 12.3691 11.2015 12.5367 11.444L15.0089 15.0255C15.1079 15.1736 15.242 15.2945 15.3991 15.3774C15.5562 15.4604 15.7314 15.5027 15.9088 15.5005C16.4846 15.5005 16.9783 15.014 16.9783 14.414V11.9445C16.9783 11.4545 17.3697 11.057 17.8535 11.057H17.9499C18.0106 11.057 18.0593 11.007 18.0593 10.946V8.6125C18.0594 8.59799 18.0566 8.58361 18.0511 8.57018C18.0457 8.55674 18.0376 8.54453 18.0275 8.53422C18.0173 8.52391 18.0052 8.51572 17.9919 8.5101C17.9786 8.50449 17.9644 8.50157 17.9499 8.5015V8.502Z" fill="black"/>
</g>
<defs>
<clipPath id="clip0_306_5284">
<rect width="11.9333" height="12" fill="white" transform="translate(6.12598 6)"/>
</clipPath>
</defs>
</svg>
