<svg width="88" height="88" viewBox="0 0 88 88" fill="none" xmlns="http://www.w3.org/2000/svg">
<path d="M0 87.0677C0.00049296 87.1669 0.0400553 87.2621 0.110337 87.3322C0.180616 87.4024 0.275795 87.4418 0.375 87.4418C0.474205 87.4418 0.569384 87.4024 0.639663 87.3322C0.709945 87.2621 0.749507 87.1669 0.75 87.0677C0.75 87.0677 0.75 87.0677 0.75 87.0677C1.53992 85.7853 2.59303 83.8941 3.52302 82.3088C6.82062 76.676 9.95513 70.9078 12.6989 64.9594C14.0834 61.9642 15.3773 58.9228 16.5578 55.8374C20.7929 44.6488 23.7449 33.04 26.2187 21.3752C27.2448 16.3909 28.2714 11.3587 28.5984 6.22085C28.6619 5.29941 28.7201 4.37832 28.7422 3.43834C28.7522 2.96869 28.7546 2.4941 28.7247 2.00017C28.7085 1.75162 28.6866 1.50193 28.6327 1.22113C28.6043 1.08019 28.5714 0.936107 28.5022 0.759221C28.4225 0.594158 28.3578 0.335878 27.9388 0.0997006C27.7313 -0.0100757 27.4465 -0.023546 27.258 0.0317548C27.0757 0.0807885 26.9547 0.158338 26.8638 0.223195C26.6825 0.358385 26.586 0.474096 26.4916 0.58771C26.3119 0.811975 26.1851 1.01973 26.0632 1.22899C25.8258 1.64238 25.6293 2.05278 25.443 2.46081C25.0713 3.2812 24.7464 4.09734 24.4308 4.92062C23.8019 6.57023 23.231 8.21548 22.6699 9.88048C19.0259 20.8941 15.7972 32.0271 12.8441 43.2406C10.5511 52.0254 8.54863 60.8863 6.78103 69.781C6.16757 72.8867 5.52915 75.9346 4.99241 79.1196C4.98253 79.1906 4.96863 79.2664 4.9553 79.3979C4.95205 79.4337 4.94876 79.4707 4.94765 79.5304C4.95235 79.5991 4.92901 79.6378 4.99807 79.8895C5.02282 79.9606 5.04901 80.0448 5.15003 80.1826C5.22918 80.3017 5.47359 80.5005 5.71443 80.5419C5.97429 80.5914 6.12059 80.5448 6.23701 80.5076C6.33238 80.4736 6.39346 80.438 6.44052 80.4086C6.60363 80.2987 6.62675 80.2574 6.67284 80.2119C6.90639 79.9368 6.94645 79.836 7.04961 79.6761C8.84308 76.8477 10.2606 73.665 11.899 70.9721C13.3054 68.7999 15.026 66.0957 16.4651 64.9088C16.4584 64.893 16.3787 65.0218 15.9699 64.8777C15.7873 64.7981 15.6709 64.649 15.6317 64.5746C15.5873 64.4921 15.5862 64.4657 15.5825 64.4542C15.5837 64.4336 15.5909 64.621 15.5724 64.7737C15.538 65.1127 15.462 65.4973 15.3775 65.8843C15.2052 66.663 14.9955 67.456 14.7854 68.2573C14.3642 69.8556 13.9328 71.4724 13.5832 73.1265C13.5278 73.393 13.473 73.6587 13.434 73.9755C13.4165 74.138 13.3961 74.3045 13.4154 74.561C13.4293 74.6926 13.4447 74.8542 13.5541 75.0888C13.6506 75.3224 13.9607 75.6244 14.2376 75.709C17.158 76.5054 18.8632 74.4239 20.2787 73.1545C21.7026 71.7203 22.921 70.1819 24.1736 68.7367C24.728 68.0346 25.2518 67.494 25.4799 66.1911C25.4876 66.0179 25.5017 65.768 25.3142 65.4302C25.1265 65.0806 24.6963 64.8745 24.4506 64.8508C23.9413 64.7971 23.7258 64.9191 23.4824 65.0248C21.4212 66.4102 21.5451 68.2344 21.4768 69.8491C21.4868 70.022 21.494 70.1498 21.5743 70.395C21.6393 70.5934 21.8164 70.9177 22.1359 71.1116C22.8217 71.4786 23.2197 71.2671 23.4836 71.2016C23.9954 71.0138 24.3063 70.7904 24.6285 70.5702C25.2548 70.1243 25.788 69.6598 26.3168 69.1887C27.338 68.2858 28.4499 67.1413 29.2452 66.5225C29.1975 66.5472 29.125 66.6094 28.8895 66.6294C28.6538 66.6583 28.3284 66.4945 28.236 66.3777C28.0462 66.152 28.1056 66.1605 28.0988 66.1784C28.1149 66.2325 28.1412 66.3933 28.1644 66.5573C28.1896 66.7265 28.2144 66.9151 28.2677 67.1451C28.3549 67.3772 28.2944 67.659 28.8677 68.1685C29.4504 68.5266 29.6947 68.3746 29.8622 68.3733C30.0365 68.3415 30.1479 68.3036 30.2603 68.2641C30.4722 68.187 30.6382 68.1088 30.8037 68.0278C31.126 67.8684 31.4199 67.7026 31.7077 67.5368C32.2813 67.2045 32.8274 66.8687 33.3779 66.5319C34.4729 65.8603 35.5549 65.1984 36.6539 64.5652C37.3293 64.274 36.9545 64.3292 38.5026 64.9341C39.3815 65.0856 39.7623 64.7953 40.1465 64.6332C40.5161 64.4441 40.824 64.2395 41.1206 64.0305C41.71 63.6108 42.2379 63.1723 42.7585 62.7255C43.7921 61.8334 44.7693 60.9179 45.7458 59.9968C46.0126 59.7447 46.2705 59.4861 46.521 59.2228C48.3739 57.2587 49.8688 55.0886 51.2922 52.9017C53.325 49.7916 54.9554 46.3628 56.0381 42.7942C57.6161 37.5692 58.2794 32.2297 58.9094 26.9297C59.1656 24.69 59.3994 22.4471 59.5845 20.1888C59.6747 19.0661 59.7572 17.9265 59.7942 16.7771C59.8071 16.1898 59.8322 15.6369 59.7546 14.9334C59.7411 14.8349 59.7299 14.7528 59.6959 14.6133C59.677 14.5425 59.6694 14.5041 59.6198 14.3788C59.5969 14.3236 59.5687 14.2638 59.528 14.1966C59.4928 14.1414 59.4254 14.0274 59.2692 13.9004C59.1204 13.7771 58.8684 13.665 58.6091 13.6693C58.3511 13.6706 58.1496 13.7648 58.0221 13.8494C57.8575 13.9609 57.7771 14.0605 57.7071 14.1505C57.6176 14.2685 57.5473 14.3998 57.509 14.4755C57.331 14.8409 57.2523 15.0863 57.1461 15.3988C54.2818 25.9974 52.4055 36.5395 50.2801 47.1413C49.2105 52.7977 48.0369 58.3462 47.2978 64.1533C47.268 64.5533 47.2085 64.8406 47.2661 65.4475C47.284 65.5364 47.2794 65.6303 47.3985 65.8735C47.453 65.9705 47.6082 66.2549 48.0169 66.3681C48.4446 66.4618 48.658 66.3134 48.7758 66.2523C48.9911 66.1124 49.0321 66.0397 49.0951 65.9727C49.1512 65.9062 49.1892 65.8541 49.2255 65.8031C49.3622 65.6075 49.4526 65.4521 49.5458 65.303C51.1293 62.669 52.9714 60.6515 54.8578 57.6348C54.9633 57.3854 54.9795 57.0095 54.859 56.7249C54.7434 56.4371 54.5585 56.254 54.388 56.129C54.0403 55.8845 53.7011 55.8114 53.3563 55.8086C49.0507 57.1234 46.6834 59.229 43.3315 60.8953C33.7776 66.1263 24.1501 71.2757 14.6213 76.5898C11.2647 78.532 7.87406 80.2053 4.67297 82.707C4.55365 82.8105 4.4322 82.9114 4.28459 83.0631C4.2449 83.105 4.20829 83.144 4.15578 83.2121C4.11303 83.2812 4.03582 83.3315 3.96573 83.6176C3.92508 83.7703 3.96166 84.1129 4.16856 84.3134C4.3439 84.4902 4.50146 84.5223 4.56863 84.5421C4.74067 84.5804 4.80371 84.5717 4.88721 84.5712C5.37098 84.5322 5.62274 84.4387 5.94355 84.3552C6.54668 84.1833 7.12953 83.9891 7.70819 83.7927C8.86682 83.3971 10.0021 82.9847 11.1529 82.5614C22.5422 78.3081 33.8648 73.9391 45.4095 70.2274C51.3355 68.3277 57.3302 66.642 63.3659 65.1264C67.1601 64.1696 70.9777 63.2918 74.7887 62.3969C78.0256 61.6093 81.2727 60.8961 84.4353 59.7305C85.562 59.3132 86.6687 58.8282 87.7551 58.3558C87.8462 58.3166 87.9184 58.243 87.9555 58.1509C87.9926 58.0588 87.9917 57.9558 87.9529 57.8644C87.9142 57.7731 87.8407 57.7009 87.7487 57.6636C87.6567 57.6263 87.5536 57.6271 87.4621 57.6654C87.4621 57.6654 87.4621 57.6654 87.4621 57.6654C86.358 58.1325 85.2772 58.5936 84.1634 58.994C81.0804 60.098 77.8223 60.7858 74.5901 61.5393C70.7784 62.3968 66.942 63.2422 63.1294 64.1677C57.0633 65.6336 51.031 67.2743 45.064 69.1336C33.4474 72.764 22.0605 77.0611 10.6671 81.2285C9.51964 81.6419 8.3875 82.0444 7.24742 82.4253C6.68023 82.6138 6.10507 82.8005 5.55237 82.9539C5.28884 83.0276 4.9493 83.1078 4.83368 83.1114C4.83221 83.1133 4.8279 83.1038 4.92365 83.1244C4.96019 83.1369 5.07335 83.1521 5.22502 83.303C5.40425 83.4748 5.4347 83.7801 5.40178 83.8931C5.34629 84.1077 5.31852 84.0874 5.31745 84.1014C5.31419 84.1056 5.3245 84.0931 5.3393 84.0781C5.4013 84.0142 5.51416 83.9165 5.62465 83.823C8.50543 81.5911 12.0471 79.8219 15.3693 77.9344C24.9076 72.6898 34.5621 67.5922 44.1526 62.4C47.2562 60.808 50.8176 58.419 53.3627 57.5718C53.3769 57.5687 53.4034 57.5902 53.3492 57.5565C53.3237 57.5369 53.2647 57.4924 53.2155 57.3729C53.1629 57.2556 53.1735 57.0724 53.2118 56.9899C51.8121 59.1121 49.6021 61.7459 48.0131 64.3491C47.9159 64.5046 47.8217 64.659 47.7519 64.7566C47.7409 64.7918 47.6183 64.8695 47.8414 64.7039C47.9189 64.6667 48.0901 64.5352 48.4721 64.6177C48.8377 64.7206 48.9597 64.9631 48.9956 65.0241C49.074 65.189 49.0518 65.1865 49.0574 65.1919C49.0419 65.0759 49.0679 64.6565 49.1024 64.3332C49.831 58.774 51.036 53.1187 52.1186 47.5016C54.2604 36.9683 56.2231 26.2308 59.0016 16.0139C59.0889 15.7519 59.175 15.518 59.2543 15.3594C59.2687 15.3294 59.29 15.2993 59.2682 15.3302C59.2506 15.3509 59.2184 15.4017 59.1004 15.4824C59.0094 15.5428 58.8423 15.6252 58.6169 15.6263C58.3902 15.6305 58.1678 15.5299 58.0471 15.4291C57.7944 15.1938 57.8462 15.1772 57.8101 15.1244C57.7938 15.0832 57.7972 15.0872 57.7969 15.0883C57.7997 15.0992 57.8069 15.1371 57.8128 15.1842C57.8606 15.5956 57.8505 16.1812 57.8343 16.7155C57.7976 17.8013 57.7152 18.9244 57.6245 20.0279C57.4386 22.2522 57.2032 24.4806 56.9459 26.7028C56.3163 31.9614 55.6424 37.2354 54.133 42.2082C53.095 45.6132 51.5662 48.8276 49.6142 51.8156C48.2241 53.9532 46.7679 56.0496 45.0719 57.8443C44.8434 58.0846 44.6103 58.3182 44.3722 58.5432C43.4051 59.4556 42.439 60.3599 41.4541 61.2102C40.9605 61.6344 40.4628 62.0452 39.9647 62.3995C39.7174 62.5748 39.4671 62.7364 39.2421 62.8507C39.0371 62.9767 38.7608 62.9808 38.9766 62.9927C38.888 63.0033 38.4057 62.6364 37.6896 62.4633C36.9403 62.2801 36.1541 62.5352 35.6558 62.8352C34.5293 63.4849 33.4275 64.16 32.3352 64.8309C31.7874 65.1665 31.2465 65.4992 30.7095 65.8106C30.4421 65.9652 30.1718 66.1166 29.9222 66.24C29.7971 66.3019 29.6753 66.3566 29.5859 66.3887C29.5421 66.405 29.5052 66.4133 29.5193 66.4102C29.5368 66.4333 29.6008 66.3002 30.0501 66.5647C30.2236 66.7034 30.2238 66.769 30.2302 66.7707C30.2314 66.7749 30.2181 66.7376 30.2068 66.6883C30.1826 66.5872 30.1597 66.4373 30.1353 66.2695C30.1084 66.0972 30.0901 65.918 30.0171 65.6439C29.9634 65.4998 29.9676 65.3374 29.662 64.988C29.5105 64.8085 29.1017 64.6062 28.7807 64.6413C28.4575 64.6674 28.3113 64.7641 28.1866 64.8363C26.8072 65.8986 26.0393 66.7935 24.9904 67.7091C24.4917 68.1554 23.9853 68.5918 23.4838 68.9485C23.2425 69.1212 22.967 69.2836 22.8367 69.3262C22.774 69.37 22.7999 69.2412 23.1834 69.4276C23.356 69.5328 23.4329 69.6957 23.4466 69.742C23.4662 69.8032 23.4579 69.7971 23.458 69.7719C23.3906 68.5953 23.8384 66.9942 24.3624 66.7953C24.3526 66.7877 24.3977 66.8237 24.1504 66.8046C24.0335 66.7987 23.7303 66.6607 23.6074 66.4267C23.4861 66.2036 23.5105 66.0892 23.509 66.0468C23.5154 66.0223 23.4809 66.1743 23.4307 66.2883C23.38 66.4118 23.3132 66.5445 23.2371 66.6757C23.084 66.9396 22.8939 67.1999 22.6813 67.4462C21.3979 68.9338 20.1978 70.4464 18.8877 71.7683C17.6323 73.0525 15.9581 74.3201 14.9063 73.8737C15.0605 73.916 15.2701 74.122 15.3122 74.2384C15.3658 74.3566 15.3584 74.389 15.3607 74.3916C15.359 74.3913 15.3605 74.2983 15.3724 74.2043C15.3956 74.0081 15.4419 73.7673 15.4919 73.5273C15.824 71.9398 16.2428 70.3534 16.6621 68.749C16.8717 67.9418 17.0829 67.1398 17.2676 66.297C17.3583 65.8717 17.4446 65.4552 17.4951 64.9606C17.513 64.7133 17.5491 64.4666 17.469 64.0454C17.4413 63.9268 17.4128 63.8104 17.3155 63.6314C17.2264 63.4668 17.0366 63.2383 16.7599 63.1172C16.1487 62.8898 15.8721 63.0818 15.6633 63.1545C12.838 65.382 11.8995 67.612 10.2878 69.9496C8.47981 72.9561 7.21473 75.8858 5.44281 78.7009C5.37957 78.8102 5.26125 78.9788 5.28998 78.941C5.30836 78.9253 5.30546 78.9105 5.43521 78.8224C5.52109 78.7914 5.61017 78.6402 6.10606 78.7053C6.33771 78.7451 6.57303 78.937 6.64693 79.0488C6.7419 79.1785 6.76447 79.2543 6.78604 79.3157C6.8437 79.5291 6.82011 79.5289 6.82505 79.5583C6.8246 79.5779 6.82407 79.5773 6.82453 79.573C6.82636 79.5491 6.83809 79.4696 6.85015 79.3856C7.35105 76.3588 7.99256 73.2239 8.59131 70.1402C10.3234 61.2633 12.2813 52.436 14.5255 43.6751C17.4156 32.4941 20.5866 21.3452 24.1458 10.3722C24.693 8.71611 25.2496 7.08094 25.8563 5.46058C26.1599 4.65318 26.4728 3.85467 26.8177 3.08106C26.9893 2.69818 27.1711 2.31622 27.3645 1.97512C27.4611 1.80505 27.5642 1.64188 27.6561 1.52676C27.6997 1.47065 27.7476 1.4264 27.7436 1.43056C27.7397 1.43197 27.718 1.45319 27.6374 1.47561C27.5568 1.50188 27.384 1.49579 27.2755 1.43595C27.062 1.30521 27.1141 1.27039 27.1192 1.31273C27.1351 1.35069 27.1569 1.42678 27.1737 1.5108C27.2084 1.68299 27.2303 1.88779 27.2448 2.09703C27.2732 2.51784 27.275 2.96448 27.2682 3.40996C27.2529 4.30537 27.202 5.2131 27.1451 6.12433C26.8601 11.1432 25.8819 16.1272 24.8939 21.1023C22.5136 32.7363 19.6607 44.324 15.5537 55.458C14.4086 58.5287 13.1501 61.5601 11.8007 64.549C9.12562 70.4866 6.06335 76.25 2.82426 81.9077C1.87812 83.6247 0.978224 84.9975 0 87.0677Z" fill="white"/>
</svg>
